<?xml version="1.0" encoding="UTF-8"?>
<svg viewBox="0 0 167.82721 55.331657" xmlns="http://www.w3.org/2000/svg">
 <g transform="translate(-227.51 -167.55)">
  <path d="m229.52 196.33c-0.08709-8.4109 0.63721-14.117 2.9234-14.617l11.848-1.5386c8.3816-3.8703 17.117-8.6831 24.772-10.617 5.8792-1.1707 12.1-1.8864 18.771-2.0002 13.425 0.21409 28.358-0.70172 37.85 2.4618 9.0416 4.1758 17.949 8.6206 26.465 13.848 11.478 0.78321 34.907 3.9761 38.312 7.6932 1.6978 2.2797 3.0493 4.7325 3.6927 7.5393 1.4878 0.61504 1.3828 2.8229 0.76932 5.5391l-0.15386 5.5391-5.693 2.308-11.232 1.3848-2.9234 0.76932c-4.2378 9.9421-19.973 8.7095-24.31-0.46159l-3.5389 0.61546-63.084-0.61546-0.76932 1.077-4.9236-0.15386c-3.3049 10.149-22.171 11.078-25.08-1.3848h-2.4618l-7.3855-1.077-11.232-1.5386c-3.0619-1.8169-4.3384-3.1874-4.6159-4.3082l0.76931-1.077-0.61545-6.1546c0.41416-2.0835 0.79405-2.7525 1.8464-3.2311zm68.17-26.369c-6.7709 0.01103-13.391 0.25981-19.348 1.5726l1.3882 11.778 20.91 0.72663c0.85901-0.18174 1.7526-0.32247 1.5834-1.7895l-2.1799-12.288h-2.3534zm-20.346 1.8003c-4.0085 0.97795-7.6987 2.469-10.899 4.7394-1.2685 0.84983-1.7327 1.8577-1.681 2.9716 0.58783 2.5445 2.0893 3.5677 4.2622 3.4705l9.7065 0.3362-1.3882-11.518zm27.261-1.7001 4.4604 12.687c0.56254 0.91772 1.3801 1.6059 2.8744 1.685l21.707 0.89207c-3.0943-2.1074-0.54892-6.0018 2.5771-5.1542-5.8656-4.8846-12.234-7.985-19.13-9.2181-4.0448-0.65188-8.2602-0.79216-12.489-0.89207zm-71.878 12.586c-1.7834 0.6379-2.216 5.1728-2.2885 10.746l5.8208-0.04975c0.22357-1.9485 0.26514-3.8971 0.02487-5.8456-0.57272-3.4087-2.1673-3.8303-3.5571-4.8506zm38.644 5.2202h5.5104c0.43794 0 0.7905 0.35256 0.7905 0.79049s-0.35256 0.79049-0.7905 0.79049h-5.5104c-0.43794 0-0.7905-0.35255-0.7905-0.79049s0.35256-0.79049 0.7905-0.79049zm38.001 0.90912h5.5104c0.43794 0 0.79049 0.35256 0.79049 0.79049s-0.35255 0.79049-0.79049 0.79049h-5.5104c-0.43794 0-0.79049-0.35256-0.79049-0.79049s0.35255-0.79049 0.79049-0.79049zm-34.251 21.216c0 5.0389-4.0895 9.1284-9.1284 9.1284s-9.1284-4.0895-9.1284-9.1284 4.0895-9.1284 9.1284-9.1284 9.1284 4.0895 9.1284 9.1284zm97.44-1.1571c0 5.0389-4.0895 9.1284-9.1284 9.1284s-9.1284-4.0895-9.1284-9.1284 4.0895-9.1284 9.1284-9.1284 9.1284 4.0895 9.1284 9.1284zm7.6284-11.028 11.794 0.0761c-0.90979-1.9633-2.0836-3.6996-3.9061-5.1236l-4.5655 0.3551c-0.83766 0.1265-1.1913 0.49503-1.4965 0.88774l-1.8262 3.8046z" fill-rule="evenodd"/>
 </g>
</svg>
