<?xml version="1.0" encoding="UTF-8"?>
<svg viewBox="0 0 40 40" xmlns="http://www.w3.org/2000/svg">
 <path d="m20 0c-4.7314 0-8.5714 4.032-8.5714 9 0.04132 3.1265 1.6545 5.7684 3.3333 8.2812-1.8713-1.416-3.951-2.2724-6.1905-2.2812-4.7314 0-8.5714 4.032-8.5714 9s3.84 9 8.5714 9c3.8328-0.06415 6.8983-2.7459 9.9107-5-0.53904 6.7332-1.6355 10.514-8.006 12h19.048c-6.3705-1.4864-7.4669-5.2668-8.006-12 2.9775 2.5521 6.1001 4.7171 9.9107 5 4.7314 0 8.5714-4.032 8.5714-9s-3.84-9-8.5714-9c-2.2969-2.4e-4 -4.2809 1.0567-6.1905 2.2812 1.9002-2.4869 3.1509-5.1704 3.3333-8.2812 0-4.968-3.84-9-8.5714-9z"/>
</svg>
