<?xml version="1.0" encoding="UTF-8"?>
<svg viewBox="0 0 640 480" xmlns="http://www.w3.org/2000/svg">
 <g fill-rule="evenodd" stroke="#000" stroke-linecap="round" stroke-linejoin="round">
  <path d="m83.777 322.28c176.37-4.355 248.04-85.904 393.56-76.752 27.585 1.735 123.32 47.194 119.21 26.128-39.294-201.45-136.08-205.22-192.7-212.29-95.259 89.272-285.23-46.813-320.07 262.92z" stroke-width="4.254"/>
  <path d="m1.1264 95.134l406.62 72.723 293.94-99.329-354.36-67.401-346.2 94.007z" stroke-width="4.254"/>
  <path d="m348.27 78.557c57.351 20.208 153.59 39.917 163.97 50.23 14.069 13.982 14.819 79.291 5.773 174.36l-25.474 68.02c24.01 25.166 59.86 18.488 74.48-2.887l-22.447-64.555c10.585-57.736 8.474-168.32-2.887-183.6-18.456-24.814-116.24-40.03-174.36-60.045-9.046 2.6943-10.008 15.781-19.053 18.476z" stroke-width="4.254"/>
  <path d="m332.65 60.642c14.929-26.004 53.64-16.847 61.164-6.0198 10.204 14.685-18.976 1.2035-35.968 24.309-11.619 15.799-34.111-2.7588-25.196-18.289z" stroke-width="2.836"/>
  <path d="m514.89 269.21c-13.608 7.621-14.153 24.632-5.715 35.11l44.499 3.675c12.384-7.077 12.112-28.034 2.858-34.702l-41.642-4.083z" stroke-width="2.836"/>
 </g>
</svg>
