<?xml version='1.0' encoding='utf-8'?>
<svg xmlns="http://www.w3.org/2000/svg" enable-background="new 0 0 648 432" version="1.1" viewBox="0 0 648 432">
<path d="m428.9 64.1c-45.1 9.9-151.6 33.6-155.9 34.6-5.5 1.3-17.3 2.4-17.3 17.4v199.4c-12.4-7-31.3-7.9-50.2-1.1-28 10.1-45.3 33.2-38.6 51.7s34.8 25.3 62.7 15.2c26-9.4 42.8-30 39.7-47.7v-150.8c0-8.3-0.2-19 21.4-23.6 9.9-2.1 144.6-32.1 144.6-32.1v139.4c-12.4-7.2-31.5-8.2-50.6-1.3-28 10.1-45.3 33.2-38.6 51.7s34.8 25.3 62.7 15.2c25.8-9.3 42.4-29.6 39.8-47.2h0.3v-191.9c0-23.8 16.8-24.4 16.8-24.4v-13.1l-36.8 8.6z"/>
</svg>