<?xml version="1.0" encoding="utf-8"?>
<svg enable-background="new 0 0 648 432" version="1.1" viewBox="0 0 300 331" xmlns="http://www.w3.org/2000/svg">
  <path d="M 263.441 8.6 C 218.341 18.5 111.841 42.2 107.541 43.2 C 102.041 44.5 90.241 45.6 90.241 60.6 L 90.241 260 C 77.841 253 58.941 252.1 40.041 258.9 C 12.041 269 -5.259 292.1 1.441 310.6 C 8.141 329.1 36.241 335.9 64.141 325.8 C 90.141 316.4 106.941 295.8 103.841 278.1 L 103.841 127.3 C 103.841 119 103.641 108.3 125.241 103.7 C 135.141 101.6 269.841 71.6 269.841 71.6 L 269.841 211 C 257.441 203.8 238.341 202.8 219.241 209.7 C 191.241 219.8 173.941 242.9 180.641 261.4 C 187.341 279.9 215.441 286.7 243.341 276.6 C 269.141 267.3 285.741 247 283.141 229.4 L 283.441 229.4 L 283.441 37.5 C 283.441 13.7 300.241 13.1 300.241 13.1 L 300.241 0 L 263.441 8.6 Z"/>
</svg>