<?xml version="1.0" encoding="utf-8"?>
<svg viewBox="0 0 56.699699 55.29895" xmlns="http://www.w3.org/2000/svg">
  <path d="M 28.2 1 C 35.868 1 42.302 3.366 47.502 8.098 C 52.969 13.099 55.702 19.532 55.702 27.397 C 55.702 34.799 53.068 41.132 47.801 46.399 C 42.534 51.666 35.967 54.299 28.102 54.299 C 20.635 54.299 14.252 51.716 8.952 46.549 C 3.652 41.382 1.002 35.099 1.002 27.7 C 1.002 19.967 3.585 13.584 8.752 8.55 C 13.919 3.516 20.401 1 28.199 1 Z M 28.301 14.998 C 24.901 14.998 22.034 16.232 19.701 18.698 C 17.367 21.165 16.2 24.098 16.2 27.498 C 16.2 30.833 17.384 33.8 19.751 36.4 C 22.118 39 24.968 40.3 28.301 40.3 C 31.633 40.3 34.502 38.967 36.902 36.299 C 39.302 33.632 40.502 30.665 40.502 27.397 C 40.502 24.065 39.302 21.165 36.902 18.698 C 34.502 16.232 31.635 14.998 28.301 14.998 Z" stroke-width="2" style="stroke: rgb(0, 0, 0);"/>
</svg>