<?xml version="1.0" encoding="UTF-8"?>
<svg viewBox="0 0 56.699699 55.29895" xmlns="http://www.w3.org/2000/svg" xmlns:xlink="http://www.w3.org/1999/xlink">
 <defs>
  <linearGradient id="a">
   <stop stop-color="#767676" offset="0"/>
   <stop stop-color="#bbb" offset=".66667"/>
   <stop stop-color="#dfdfdf" offset="1"/>
  </linearGradient>
  <linearGradient id="c" x1="243.78" x2="253.15" y1="-570.45" y2="-557.32" gradientUnits="userSpaceOnUse" xlink:href="#a" spreadMethod="reflect"/>
  <linearGradient id="b" x1="256.46" x2="262.8" y1="-584.48" y2="-575.71" gradientUnits="userSpaceOnUse" xlink:href="#a" spreadMethod="reflect"/>
 </defs>
 <g transform="translate(-567.07 34.763)">
  <path d="m595.27-33.763c7.668 5e-5 14.102 2.3662 19.302 7.0984 5.4666 5.0008 8.2 11.434 8.2 19.299 0 7.4016-2.6337 13.735-7.901 19.002s-11.834 7.8995-19.699 7.8995c-7.4666 0-13.85-2.5833-19.15-7.7499s-7.9498-11.45-7.9498-18.849c0-7.7331 2.5833-14.116 7.75-19.15s11.649-7.55 19.447-7.55zm0.1007 13.998c-3.3997 4e-5 -6.2663 1.2335-8.5999 3.7003s-3.5003 5.4001-3.5003 8.7997c0 3.3346 1.1835 6.3019 3.5507 8.902s5.2169 3.9002 8.5495 3.9002 6.2016-1.3336 8.6014-4.0009 3.5995-5.6345 3.5995-8.902c0-3.3325-1.1999-6.2322-3.5995-8.699s-5.2669-3.7002-8.6014-3.7003z" fill="url(#c)" stroke="url(#b)" stroke-width="2"/>
 </g>
</svg>
