<?xml version='1.0' encoding='utf-8'?>
<svg xmlns="http://www.w3.org/2000/svg" enable-background="new 0 0 623.6 623.6" version="1.1" viewBox="0 0 623.6 623.6">
<path d="m379.8 522.6c95.5 7.5 94-40.5 94-40.5 63.5-40 15.5-117.5 15.5-117.5 9.5-89-8-123-8-123 8-70.5-13.5-88.5-13.5-88.5-22-84.5-55-86-55-86-5-9-17.5-17.5-28-21s-9 19.5-9 19.5c-49-27.5-51.5-19.5-51.5-19.5 6 5 15 37 15 37-24.5 22.5-22 77-22 77 15.5 20 24.5 20.5 24.5 20.5s-11.5 33-6 54.5c0 0-105 157-41.5 267.5 0 0-62 58.5-122 37.5s0-123 0-123 6.6-23.9-17-7c-39 28-65.5 160.8-2.3 169.3 175.7 23.7 192.9-59.5 226.8-56.8z"/>
</svg>