<?xml version="1.0" encoding="UTF-8"?>
<svg viewBox="0 0 793.7 1122.5" xmlns="http://www.w3.org/2000/svg">
 <path d="m578.08 41.891c-0.56104 0.007999-1.137 0.057499-1.688 0.1562-0.01001 0.001999-0.020996-0.001999-0.031006 0l-55.625 9.5c-3.538 0.607-6.504 3.0329-7.813 6.375a2.529 2.529 0 0 0 0 0.0312l-25.812 66.187-251.91 6.282c-2.897 0.071991-5.617 1.38-7.5 3.562-1.884 2.182-2.79 5.083-2.438 7.969l13.906 115.03c0.574 4.826 4.561 8.653 9.407 9.031l179.59 14.282 35.594 28a2.529 2.529 0 0 0 0.125 0.092987c0.037994 0.027008 0.085999 0.037018 0.125 0.063019 0.044006 0.028992 0.080994 0.065002 0.125 0.092987 6.496 4.849 8.106 11.455 7.188 15.125-0.52301 2.092-1.322 3.629-3.219 4.813s-5.174 2.041-10.781 1.719a2.529 2.529 0 0 0 -0.063019 0c-0.17999-0.006012-0.383-0.003998-0.56299 0-0.029999 0-0.063995-0.001007-0.093994 0l-214.19 0.625h-0.031006c-5.629-0.036011-10.366 4.685-10.344 10.312 0.022003 5.628 4.778 10.331 10.406 10.25h0.030991l15.657-0.031c-5.818 3.708-9.719 10.195-9.719 17.563 0 11.458 9.385 20.843 20.844 20.843 11.458 0 20.843-9.385 20.843-20.843 0-7.408-3.911-13.959-9.781-17.657l176.38-0.5c-6.354 3.583-10.687 10.384-10.687 18.157 0 11.458 9.385 20.843 20.843 20.843 11.459 0 20.844-9.385 20.844-20.843 0-9.952-7.069-18.341-16.437-20.375 8.857-3.134 15.661-9.595 19.875-19.469a2.529 2.529 0 0 0 0.15601 -0.375c3.23-12.917-2.499-26.959-14.313-36.094a2.529 2.529 0 0 0 -0.094025 -0.093994c-0.028992-0.022003-0.033997-0.070984-0.061981-0.092987a2.529 2.529 0 0 0 -0.34302 -0.34399l-25.219-19.781 78.656-201.47 49.906-8.5c0.01001-0.001999 0.022034 0.001999 0.031006 0 5.243-0.8429 9.077-5.7292 8.625-11.031-0.45196-5.3122-5.081-9.4786-10.406-9.4062h0.001038zm-98.563 98.125l-14.5 37.188h-18.906v-36.344l33.406-0.844zm-40.625 1.032v36.156h-34.906v-35.281l34.906-0.875zm-42.125 1.031v35.125h-34.906v-34.25l34.906-0.875zm-42.125 1.062v34.063h-34.906v-33.188l34.906-0.875zm-42.125 1.063v33h-34.906v-32.125l34.906-0.875zm-42.125 1.031v31.969h-25.594l-3.781-31.219 29.375-0.75zm-24.719 39.156h24.719v32.657h-20.781l-3.938-32.657zm31.938 0h34.906v32.657h-34.906v-32.657zm42.125 0h34.906v32.657h-34.906v-32.657zm42.125 0h34.906v32.657h-34.906v-32.657zm42.125 0h34.906v32.657h-34.906v-32.657zm42.125 0h16.125l-12.75 32.657h-3.375v-32.657zm-195.62 39.844h19.906v23.438l-17.25-1.375-2.656-22.063zm27.125 0h34.906v26.781l-34.906-2.781v-24zm42.125 0h34.906v30.125l-34.906-2.75v-27.375zm42.125 0h34.906v33.5l-34.906-2.781v-30.719zm42.125 0h34.906v19.875l-6.625 16.969c-0.85998-0.41702-1.798-0.673-2.75-0.75l-25.531-2.031v-34.063zm42.125 0h0.53101l-0.531 1.469v-1.469zm-176.84 132.44c6.811 0 12.25 5.439 12.25 12.25s-5.439 12.218-12.25 12.218-12.25-5.407-12.25-12.218 5.439-12.25 12.25-12.25zm197.59 0c6.811 0 12.25 5.439 12.25 12.25s-5.439 12.218-12.25 12.218-12.25-5.407-12.25-12.218 5.439-12.25 12.25-12.25zm-197.59 5.812c-3.7 0-6.656 2.956-6.656 6.656 0 3.701 2.956 6.625 6.656 6.625s6.656-2.924 6.656-6.625c0-3.7-2.956-6.656-6.656-6.656zm197.59 0c-3.7 0-6.656 2.956-6.656 6.656 0 3.701 2.956 6.625 6.656 6.625s6.656-2.924 6.656-6.625c0-3.7-2.956-6.656-6.656-6.656z" fill="#ff7f00" stroke-width="18.5"/>
</svg>
