<?xml version="1.0" encoding="utf-8"?>
<svg viewBox="0 0 363 348" xmlns="http://www.w3.org/2000/svg" xmlns:bx="https://boxy-svg.com">
  <path d="M 352.892 0.003 C 352.331 0.011 351.755 0.06 351.204 0.159 C 351.194 0.161 351.183 0.157 351.173 0.159 L 295.548 9.659 C 292.01 10.266 289.044 12.692 287.735 16.034 C 287.735 16.045 287.735 16.055 287.735 16.065 L 261.923 82.252 L 10.013 88.534 C 7.116 88.606 4.396 89.914 2.513 92.096 C 0.629 94.278 -0.277 97.179 0.075 100.065 L 13.981 215.095 C 14.555 219.921 18.542 223.748 23.388 224.126 L 202.978 238.408 L 238.572 266.408 C 238.612 266.441 238.654 266.472 238.697 266.501 C 238.735 266.528 238.783 266.538 238.822 266.564 C 238.866 266.593 238.903 266.629 238.947 266.657 C 245.443 271.506 247.053 278.112 246.135 281.782 C 245.612 283.874 244.813 285.411 242.916 286.595 C 241.019 287.779 237.742 288.636 232.135 288.314 C 232.114 288.314 232.093 288.314 232.072 288.314 C 231.892 288.308 231.689 288.31 231.509 288.314 C 231.479 288.314 231.445 288.313 231.415 288.314 L 17.225 288.939 L 17.194 288.939 C 11.565 288.903 6.828 293.624 6.85 299.251 C 6.872 304.879 11.628 309.582 17.256 309.501 L 17.287 309.501 L 32.944 309.47 C 27.126 313.178 23.225 319.665 23.225 327.033 C 23.225 338.491 32.61 347.876 44.069 347.876 C 55.527 347.876 64.912 338.491 64.912 327.033 C 64.912 319.625 61.001 313.074 55.131 309.376 L 231.511 308.876 C 225.157 312.459 220.824 319.26 220.824 327.033 C 220.824 338.491 230.209 347.876 241.667 347.876 C 253.126 347.876 262.511 338.491 262.511 327.033 C 262.511 317.081 255.442 308.692 246.074 306.658 C 254.931 303.524 261.735 297.063 265.949 287.189 C 266.011 287.069 266.063 286.943 266.105 286.814 C 269.335 273.897 263.606 259.855 251.792 250.72 C 251.761 250.688 251.73 250.657 251.698 250.626 C 251.669 250.604 251.664 250.555 251.636 250.533 C 251.533 250.408 251.418 250.293 251.293 250.189 L 226.074 230.408 L 304.73 28.938 L 354.636 20.438 C 354.646 20.436 354.658 20.44 354.667 20.438 C 359.91 19.596 363.744 14.709 363.292 9.407 C 362.84 4.095 358.211 -0.071 352.886 0.001 L 352.887 0.001 Z M 254.329 98.128 L 239.829 135.316 L 220.923 135.316 L 220.923 98.972 L 254.329 98.128 Z M 213.704 99.16 L 213.704 135.316 L 178.798 135.316 L 178.798 100.035 L 213.704 99.16 Z M 171.579 100.191 L 171.579 135.316 L 136.673 135.316 L 136.673 101.066 L 171.579 100.191 Z M 129.454 101.253 L 129.454 135.316 L 94.548 135.316 L 94.548 102.128 L 129.454 101.253 Z M 87.329 102.316 L 87.329 135.316 L 52.423 135.316 L 52.423 103.191 L 87.329 102.316 Z M 45.204 103.347 L 45.204 135.316 L 19.61 135.316 L 15.829 104.097 L 45.204 103.347 Z M 20.485 142.503 L 45.204 142.503 L 45.204 175.16 L 24.423 175.16 L 20.485 142.503 Z M 52.423 142.503 L 87.329 142.503 L 87.329 175.16 L 52.423 175.16 L 52.423 142.503 Z M 94.548 142.503 L 129.454 142.503 L 129.454 175.16 L 94.548 175.16 L 94.548 142.503 Z M 136.673 142.503 L 171.579 142.503 L 171.579 175.16 L 136.673 175.16 L 136.673 142.503 Z M 178.798 142.503 L 213.704 142.503 L 213.704 175.16 L 178.798 175.16 L 178.798 142.503 Z M 220.923 142.503 L 237.048 142.503 L 224.298 175.16 L 220.923 175.16 L 220.923 142.503 Z M 25.303 182.347 L 45.209 182.347 L 45.209 205.785 L 27.959 204.41 L 25.303 182.347 Z M 52.428 182.347 L 87.334 182.347 L 87.334 209.128 L 52.428 206.347 L 52.428 182.347 Z M 94.553 182.347 L 129.459 182.347 L 129.459 212.472 L 94.553 209.722 L 94.553 182.347 Z M 136.678 182.347 L 171.584 182.347 L 171.584 215.847 L 136.678 213.066 L 136.678 182.347 Z M 178.803 182.347 L 213.709 182.347 L 213.709 202.222 L 207.084 219.191 C 206.224 218.774 205.286 218.518 204.334 218.441 L 178.803 216.41 L 178.803 182.347 Z M 220.928 182.347 L 221.459 182.347 L 220.928 183.816 L 220.928 182.347 Z M 44.088 314.787 C 50.899 314.787 56.338 320.226 56.338 327.037 C 56.338 333.848 50.899 339.255 44.088 339.255 C 37.277 339.255 31.838 333.848 31.838 327.037 C 31.838 320.226 37.277 314.787 44.088 314.787 Z M 241.678 314.787 C 248.489 314.787 253.928 320.226 253.928 327.037 C 253.928 333.848 248.489 339.255 241.678 339.255 C 234.867 339.255 229.428 333.848 229.428 327.037 C 229.428 320.226 234.867 314.787 241.678 314.787 Z M 44.088 320.599 C 40.388 320.599 37.432 323.555 37.432 327.255 C 37.432 330.956 40.388 333.88 44.088 333.88 C 47.788 333.88 50.744 330.956 50.744 327.255 C 50.744 323.555 47.788 320.599 44.088 320.599 Z M 241.678 320.599 C 237.978 320.599 235.022 323.555 235.022 327.255 C 235.022 330.956 237.978 333.88 241.678 333.88 C 245.378 333.88 248.334 330.956 248.334 327.255 C 248.334 323.555 245.378 320.599 241.678 320.599 Z" stroke-width="18.5" style="" bx:origin="-0.000001 0"/>
</svg>