<?xml version="1.0" encoding="utf-8"?>
<svg viewBox="0 0 220 222" xmlns="http://www.w3.org/2000/svg" xmlns:bx="https://boxy-svg.com">
  <g transform="matrix(1, 0, 0, 1, -34.151188, -13.432055)" bx:origin="-0.014463 -0.015292">
    <path d="M 104.25 104.14 C 196.347 136.092 220.78 162.405 220.78 162.405" fill="none" stroke-opacity="0"/>
    <path d="M 236.48 70.187 C 282.528 164.163 210.636 211.147 200.299 216.787 C 216.275 167.919 236.48 70.187 236.48 70.187 Z" fill-rule="evenodd" stroke="#000" stroke-width="5" style="fill: rgba(255, 255, 255, 0);"/>
    <g fill="#fdffff" fill-rule="evenodd" stroke="#000" stroke-width="5.875">
      <g display="block">
        <path d="m94.722 152.8c-8.6441-85.72 39.258-114.17 39.258-114.17-2.5212-23.051-15.487-19.809-15.487-19.809-94.004 54.386-54.386 152.35-54.386 152.35l1.4407 0.3602c27.013-13.326 29.174-18.729 29.174-18.729z" style="fill: rgba(187, 218, 85, 0);"/>
        <path d="m63.387 173.33c-9.7246 4.6822-15.127 2.5212-15.127 2.5212-45.381-110.57 64.236-155.34 64.236-155.34 9.7246-2.8814 6.3567-1.331 6.3567-1.331-95.085 52.945-54.746 156.67-55.466 154.15z" style="fill: rgba(187, 218, 85, 0);"/>
        <path d="m49.701 177.65c24.852-6.8432 45.021-24.852 45.021-24.852 37.818 15.127 40.339 18.729 48.623 22.33-31.335 38.178-44.661 36.377-58.347 38.538-20.89-7.2034-35.297-36.017-35.297-36.017z" style="fill: rgba(187, 218, 85, 0);"/>
        <path d="m85.718 214.38c34.936-4.6822 52.945-41.059 57.627-39.979 36.017 15.487 30.614 14.047 30.614 14.047-33.856 54.386-42.86 42.86-42.86 42.86-26.652-2.5212-45.381-16.928-45.381-16.928z" style="fill: rgba(187, 218, 85, 0);"/>
        <path d="m175.4 187.73c33.856 14.767 28.814 10.445 31.695 13.686-4.322 35.297-75.996 29.534-75.996 29.534 39.258-30.614 44.301-43.22 44.301-43.22z" style="fill: rgba(187, 218, 85, 0);"/>
      </g>
      <path d="m134.02 38.076c-4.3414-22.709-11.302-19.242-10.3-20.244 40.742-3.6735 48.423 3.0056 48.423 3.0056s1.6578 2.8842 1.7746 2.8551c12.69 22.709 4.9045 23.861 4.9045 23.861-41.41-11.02-39.04-7.1373-44.802-9.4784z" style="fill: rgba(187, 218, 85, 0);"/>
      <path d="m179 47.266c9.0042-6.6631-7.9237-27.193-7.9237-27.193 38.718 9.5445 40.699 22.871 40.699 22.871-0.36015 18.909-1.4407 18.369-1.4407 18.369-26.652-13.686-31.335-14.047-31.335-14.047z" style="fill: rgba(187, 218, 85, 0);"/>
      <path d="m210.7 61.493c1.2606-24.492 1.2606-21.97 1.2606-19.449 23.231 11.886 28.814 40.699 28.093 44.301-27.553-22.511-29.354-24.852-29.354-24.852z" style="fill: rgba(187, 218, 85, 0);"/>
      <path d="m95.507 153.03c-2.6661-22.947-0.69232-46.155 0.46156-47.54 107.46 43.375 132.44 61.278 134.77 64.617l0.7711-0.2064c-15.231 34.155-28.464 29.284-28.464 29.284l-2.077-0.9231c-84.925-34.847-100.16-41.309-105.46-45.232z" style="fill: rgba(187, 218, 85, 0);"/>
      <path d="m94.84 104.49c1.9302-15.811 10.229-30.158 10.229-30.158 110.77 13.385 138.15 59.618 137.78 60.555 1.3813 7.9984-0.57315 13.006-2.7398 20.003-2.1667 6.9966-5.0082 11.974-9.7097 15.506-4.7519 3.5705-132.56-63.136-135.56-65.906z" style="fill: rgba(187, 218, 85, 0);"/>
      <path d="m104.86 74.753c15.657-26.843 27.745-35.184 27.745-35.184 87.694 10.154 106.36 47.692 106.36 47.692l-0.2308-0.2308c9.9233 34.155 5.021 51.26 3.8671 47.337-37.629-49.529-129.52-58.708-137.74-59.613z" style="fill: rgba(187, 218, 85, 0);"/>
    </g>
  </g>
</svg>