<?xml version="1.0" encoding="utf-8"?>
<svg enable-background="new 0 0 2759.84 915.082" version="1.1" viewBox="0 0 2559 796" xmlns="http://www.w3.org/2000/svg" xmlns:bx="https://boxy-svg.com">
  <path d="M 1633.645 0.699 C 1651.976 -2.439 1693.277 5.79 1703.708 9.547 C 1702.793 13.816 1671.607 122.077 1666.816 128.087 C 1669.157 138.259 1557.276 491.527 1556.696 506.687 C 1999.556 498.739 2390.596 467.46 2390.596 467.46 C 2429.485 462.188 2450.985 477.784 2556.866 488.612 C 2557.645 489.447 2559.22 491.156 2559.999 492.011 C 2542.36 489.448 2524.455 489.201 2506.949 485.669 C 2493.335 483.068 2479.379 484.682 2465.974 487.568 C 2451.849 488.745 2036.384 541.753 2033.334 542.859 C 2004.648 553.583 1994.47 553.304 1993.347 559.985 C 2092.972 561.73 2113.257 553.505 2136.457 560.365 C 2135.071 564.561 2130.134 563.574 2126.717 564.011 C 2122.906 564.078 2014.977 572.656 2003.037 575.005 C 1991.816 575.575 1980.537 574.625 1969.373 576.03 C 1964.892 576.201 1963.126 581.043 1960.316 583.777 C 1957.221 588.429 1951.012 588.239 1946.208 589.644 C 1950.994 616.848 1959.108 610.764 1961.759 622.454 C 1956.405 624.163 1950.784 624.619 1945.373 625.967 C 1933.473 632.755 1935.25 644.742 1873.981 628.872 C 1867.639 627.372 1862.133 631.72 1856.361 633.41 C 1845.5 638.024 1833.747 634.037 1822.697 632.613 C 1785.744 627.929 1760.077 619.634 1746.691 594.468 C 1746.69 594.468 1609.001 608.196 1608.991 608.196 C 1595.883 617.377 1604.316 625.262 1582.143 648.031 C 1576.162 654.43 1567.656 658.132 1558.998 658.854 C 1527.177 660.781 1280.278 705.588 1194.468 708.448 C 1191.299 735.42 1192.942 728.28 1178.614 742.549 C 1186.076 742.853 1193.994 740.517 1201.171 743.252 C 1212.257 752.73 1212.579 778.19 1201.152 787.378 C 1194.943 790.283 1186.114 789.637 1182.393 783.182 C 1179.203 778.131 1174.627 774.087 1168.703 772.701 C 1157.982 795.036 1157.641 788.951 1141.399 787.872 C 1136.026 789.904 1132.912 797.1 1126.228 795.79 C 1114.114 795.79 1112.804 778.284 1100.405 778.702 C 1098.089 784.474 1096 790.797 1090.949 794.822 C 1075.67 800.353 1070.873 786.75 1066.683 776.746 C 1059.791 777.942 1051.968 779.689 1045.74 775.474 C 1036.74 765.335 1037.462 750.164 1041.753 738.107 C 1044.886 727.018 1062.829 725.803 1068.335 735.601 C 1070.538 738.886 1070.993 742.854 1071.696 746.67 C 1074.354 746.48 1077.031 746.252 1079.709 746.043 C 1091.754 722.024 1087.365 721.889 1082.386 714.24 C 1084.551 712.189 1085.975 709.664 1086.639 706.778 C 1075.93 704.651 1063.228 704.082 1055.329 695.671 C 1052.158 697.019 1047.335 696.468 1045.987 700.285 C 1041.772 713.367 1039.74 727.19 1034.272 739.854 C 1024.892 738.639 1015.095 742 1006.342 736.968 C 999.772 735.772 999.317 725.367 991.931 726.791 C 983.805 727.645 976.589 720.924 968.482 723.183 C 966.716 725.841 970.703 727.417 971.767 729.468 C 967.229 734.689 962.995 740.936 964.685 748.246 C 971.672 747.525 980.292 743.727 985.875 749.974 C 999.24 765.306 994.162 800.222 974.274 795.923 C 963.774 795.486 962.825 778.911 951.736 780.259 C 946.571 783.999 945.622 792.202 939.47 795.411 C 919.935 799.409 920.308 786.578 916.799 776.538 C 910.009 777.583 887.726 789.887 890.122 748.19 C 890.162 733.547 902.728 724.625 915.318 733 C 919.229 737.063 920.293 742.892 921.964 748.095 C 925.306 747.791 928.685 747.355 931.78 745.931 C 945.822 725.693 932.168 717.308 935.729 709.95 C 937.837 704.956 937.742 699.469 936.052 694.381 C 931.235 699.756 933.998 703.334 922.647 727.608 C 910.97 725.481 899.293 722.804 888.299 718.209 C 880.894 715.133 872.786 714.089 865.533 710.69 C 860.691 707.025 859.001 700.798 854.919 696.583 C 847.172 692.064 838.058 690.355 830.464 685.551 C 828.603 682.152 827.217 678.279 826.837 674.425 C 828.85 664.799 835.02 656.843 838.438 647.748 C 827.482 644.254 798.342 640.407 794.255 640.438 C 786.801 643.993 776.851 657.109 756.414 676.969 C 753.623 679.646 754.079 684.089 755.37 687.412 C 758.351 692.14 763.193 695.766 764.617 701.443 C 770.81 730.425 760.982 734.032 752.617 739.55 C 752.56 740.613 752.446 742.778 752.408 743.841 C 761.517 742.793 780.604 733.811 780.604 767.233 C 781.003 776.594 776.94 786.79 768.3 791.233 C 761.028 792.733 754.439 787.303 751.269 781.208 C 748.82 776.347 743.086 775.322 738.756 772.797 C 734.503 778.151 733.667 787.056 726.661 789.582 C 722.085 789.791 716.75 790.076 712.876 787.303 C 700.691 773.218 703.697 742.536 721.534 739.911 C 721.553 736.854 721.61 733.797 721.648 730.759 C 687.375 765.032 679.351 677.762 713.37 689.861 C 720.471 692.823 721.914 701.063 724.591 707.405 C 727.23 707.69 729.888 707.994 732.585 708.259 C 737.055 692.616 729.127 674.574 728.977 639.469 C 717.066 642.899 709.687 657.68 694.193 665.899 C 689.731 668.196 687.472 673.266 683.124 675.582 C 678.415 675.677 674.428 672.24 673.194 667.816 C 677.01 667.968 680.96 668.898 684.757 667.949 C 712.11 646.731 706.726 651.267 709.535 625.513 C 687.492 619.018 645.091 618.155 627.472 605.007 C 623.314 602.007 619.251 598.21 613.744 598.437 C 614.19 609.666 618.946 617.627 607.269 635.956 C 586.86 638.224 590.615 635.947 581.655 620.5 C 578.009 626.424 576.13 636.05 567.851 636.848 C 546.116 641.057 544.69 609.633 554.883 588.886 C 545.351 585.981 535.193 586.285 525.567 583.665 C 515.238 582.146 505.194 578.235 494.675 578.33 C 481.498 585.621 469.536 596.615 453.986 598.361 C 460.195 608.443 459.169 620.234 459.245 631.532 C 441.614 639.266 450.211 646.589 417.834 643.912 C 407.581 643.02 397.746 637.02 387.303 639.583 C 360.529 644.356 319.594 631.753 297.209 612.431 C 277 590.497 283.412 566.96 284.222 555.507 C 271.601 558.066 274.271 575.067 249.665 579.108 C 259.507 600.615 255.439 594.009 255.57 612.696 C 241.245 624.23 242.728 635.807 192.001 624.981 C 178.216 629.614 163.33 629.747 149.318 625.797 C 45.088 606.749 68.886 523.787 107.375 506.137 C 121.122 498.637 137.204 499.643 152.28 500.688 C 155.261 501.428 157.35 498.979 159.59 497.498 C 139.425 489.633 11.83 470.926 0 465.315 C 0.095 462.315 0.152 459.315 0.152 456.315 C 3.608 453.125 7.31 450.258 11.316 447.828 C 10.177 446.727 9.019 445.625 7.879 444.524 C 36.234 422.349 89.397 466.274 376.229 495.372 C 392.805 496.435 409.476 494.708 426.032 496.473 C 445.456 498.524 465.108 498.106 484.417 495.22 C 483.183 492.201 481.55 489.315 480.847 486.125 C 481.606 478.929 484.056 472.055 485.556 465.011 C 486.6 461.954 483.505 460.093 481.967 457.986 C 445.075 414.634 433.331 368.841 438.05 343.056 C 443.044 326.67 454.512 313.17 466.683 301.531 C 477.05 291.639 486.373 280.569 498.126 272.234 C 505.474 267.032 511.873 260.652 517.835 253.949 C 534.272 231.699 565.223 204.695 592.455 208.874 C 654.024 205.449 772.795 252.837 773.955 252.981 C 776.139 248.538 777.316 242.804 782.101 240.355 C 780.962 245.538 779.652 250.684 778.626 255.905 C 818.176 272.348 856.929 290.784 894.386 311.575 C 910.696 318.942 924.424 331.796 942.177 335.936 C 1147.307 389.415 979.338 343.175 1277.837 424.548 C 1282.226 425.744 1287.519 428.551 1291.904 427.536 C 1300.144 425.629 1313.967 401.901 1335.138 378.202 C 1348.946 362.738 1622.938 4.912 1633.658 0.692 M 1710.537 554.052 C 1673.398 556.33 1636.335 558.837 1599.157 560.565 C 1598.625 562.824 1598.075 565.065 1597.581 567.343 C 1627.658 569.786 1641.909 564.608 1737.151 561.913 C 1739.904 562.008 1741.974 559.255 1740.986 556.635 C 1731.133 553.729 1720.728 552.21 1710.532 554.052 M 752.272 634.424 C 749.899 645.873 749.993 657.607 752.633 669.019 C 755.177 668.051 757.779 666.949 759.43 664.69 C 766.417 656.089 775.436 648.703 779.177 637.937 C 770.367 635.791 761.348 634.348 752.272 634.424 M 1113.672 703.613 C 1113.406 718.594 1116.463 733.442 1114.128 748.385 C 1121.704 747.037 1129.318 746.657 1136.932 747.948 C 1143.198 744.075 1150.356 741.322 1155.615 736.005 C 1156.773 732.17 1153.83 728.334 1152.748 724.746 C 1150.142 728.78 1144.599 743.179 1128.52 736.366 C 1119.273 728.031 1118.495 714.493 1119.767 702.911 C 1117.716 703.12 1115.684 703.348 1113.672 703.613 Z" bx:origin="0 0"/>
</svg>