<?xml version='1.0' encoding='utf-8'?>
<svg xmlns="http://www.w3.org/2000/svg" enable-background="new 0 0 2759.84 915.082" version="1.1" viewBox="0 0 2759.84 915.082">
<path d="m1733.6 60.252c18.331-3.138 59.632 5.091 70.063 8.848-0.915 4.269-32.101 112.53-36.892 118.54 2.341 10.172-109.54 363.44-110.12 378.6 442.86-7.948 833.9-39.227 833.9-39.227 38.889-5.272 60.389 10.324 166.27 21.152 0.779 0.835 2.354 2.544 3.133 3.399-17.639-2.563-35.544-2.81-53.05-6.342-13.614-2.601-27.57-0.987-40.975 1.899-14.125 1.177-429.59 54.185-432.64 55.291-28.686 10.724-38.864 10.445-39.987 17.126 99.625 1.745 119.91-6.48 143.11 0.38-1.386 4.196-6.323 3.209-9.74 3.646-3.811 0.067-111.74 8.645-123.68 10.994-11.221 0.57-22.5-0.38-33.664 1.025-4.481 0.171-6.247 5.013-9.057 7.747-3.095 4.652-9.304 4.462-14.108 5.867 4.786 27.204 12.9 21.12 15.551 32.81-5.354 1.709-10.975 2.165-16.386 3.513-11.9 6.788-10.123 18.775-71.392 2.905-6.342-1.5-11.848 2.848-17.62 4.538-10.861 4.614-22.614 0.627-33.664-0.797-36.953-4.684-62.62-12.979-76.006-38.145-1e-3 0-137.69 13.728-137.7 13.728-13.108 9.181-4.675 17.066-26.848 39.835-5.981 6.399-14.487 10.101-23.145 10.823-31.821 1.927-278.72 46.734-364.53 49.594-3.169 26.972-1.526 19.832-15.854 34.101 7.462 0.304 15.38-2.032 22.557 0.703 11.086 9.478 11.408 34.938-0.019 44.126-6.209 2.905-15.038 2.259-18.759-4.196-3.19-5.051-7.766-9.095-13.69-10.481-10.721 22.335-11.062 16.25-27.304 15.171-5.373 2.032-8.487 9.228-15.171 7.918-12.114 0-13.424-17.506-25.823-17.088-2.316 5.772-4.405 12.095-9.456 16.12-15.279 5.531-20.076-8.072-24.266-18.076-6.892 1.196-14.715 2.943-20.943-1.272-9-10.139-8.278-25.31-3.987-37.367 3.133-11.089 21.076-12.304 26.582-2.506 2.203 3.285 2.658 7.253 3.361 11.069 2.658-0.19 5.335-0.418 8.013-0.627 12.045-24.019 7.656-24.154 2.677-31.803 2.165-2.051 3.589-4.576 4.253-7.462-10.709-2.127-23.411-2.696-31.31-11.107-3.171 1.348-7.994 0.797-9.342 4.614-4.215 13.082-6.247 26.905-11.715 39.569-9.38-1.215-19.177 2.146-27.93-2.886-6.57-1.196-7.025-11.601-14.411-10.177-8.126 0.854-15.342-5.867-23.449-3.608-1.766 2.658 2.221 4.234 3.285 6.285-4.538 5.221-8.772 11.468-7.082 18.778 6.987-0.721 15.607-4.519 21.19 1.728 13.365 15.332 8.287 50.248-11.601 45.949-10.5-0.437-11.449-17.012-22.538-15.664-5.165 3.74-6.114 11.943-12.266 15.152-19.535 3.998-19.162-8.833-22.671-18.873-6.79 1.045-29.073 13.349-26.677-28.348 0.04-14.643 12.606-23.565 25.196-15.19 3.911 4.063 4.975 9.892 6.646 15.095 3.342-0.304 6.721-0.74 9.816-2.164 14.042-20.238 0.388-28.623 3.949-35.981 2.108-4.994 2.013-10.481 0.323-15.569-4.817 5.375-2.054 8.953-13.405 33.227-11.677-2.127-23.354-4.804-34.348-9.399-7.405-3.076-15.513-4.12-22.766-7.519-4.842-3.665-6.532-9.892-10.614-14.107-7.747-4.519-16.861-6.228-24.455-11.032-1.861-3.399-3.247-7.272-3.627-11.126 2.013-9.626 8.183-17.582 11.601-26.677-10.956-3.494-40.096-7.341-44.183-7.31-7.454 3.555-17.404 16.671-37.841 36.531-2.791 2.677-2.335 7.12-1.044 10.443 2.981 4.728 7.823 8.354 9.247 14.031 6.193 28.982-3.635 32.589-12 38.107-0.057 1.063-0.171 3.228-0.209 4.291 9.109-1.048 28.196-10.03 28.196 23.392 0.399 9.361-3.664 19.557-12.304 24-7.272 1.5-13.861-3.93-17.031-10.025-2.449-4.861-8.183-5.886-12.513-8.411-4.253 5.354-5.089 14.259-12.095 16.785-4.576 0.209-9.911 0.494-13.785-2.279-12.185-14.085-9.179-44.767 8.658-47.392 0.019-3.057 0.076-6.114 0.114-9.152-34.273 34.273-42.297-52.997-8.278-40.898 7.101 2.962 8.544 11.202 11.221 17.544 2.639 0.285 5.297 0.589 7.994 0.854 4.47-15.643-3.458-33.685-3.608-68.79-11.911 3.43-19.29 18.211-34.784 26.43-4.462 2.297-6.721 7.367-11.069 9.683-4.709 0.095-8.696-3.342-9.93-7.766 3.816 0.152 7.766 1.082 11.563 0.133 27.353-21.218 21.969-16.682 24.778-42.436-22.043-6.495-64.444-7.358-82.063-20.506-4.158-3-8.221-6.797-13.728-6.57 0.446 11.229 5.202 19.19-6.475 37.519-20.409 2.268-16.654-9e-3 -25.614-15.456-3.646 5.924-5.525 15.55-13.804 16.348-21.735 4.209-23.161-27.215-12.968-47.962-9.532-2.905-19.69-2.601-29.316-5.221-10.329-1.519-20.373-5.43-30.892-5.335-13.177 7.291-25.139 18.285-40.689 20.031 6.209 10.082 5.183 21.873 5.259 33.171-17.631 7.734-9.034 15.057-41.411 12.38-10.253-0.892-20.088-6.892-30.531-4.329-26.774 4.773-67.709-7.83-90.094-27.152-20.209-21.934-13.797-45.471-12.987-56.924-12.621 2.559-9.951 19.56-34.557 23.601 9.842 21.507 5.774 14.901 5.905 33.588-14.325 11.534-12.842 23.111-63.569 12.285-13.785 4.633-28.671 4.766-42.683 0.816-104.23-19.048-80.432-102.01-41.943-119.66 13.747-7.5 29.829-6.494 44.905-5.449 2.981 0.74 5.07-1.709 7.31-3.19-20.165-7.865-147.76-26.572-159.59-32.183 0.095-3 0.152-6 0.152-9 3.456-3.19 7.158-6.057 11.164-8.487-1.139-1.101-2.297-2.203-3.437-3.304 28.355-22.175 81.518 21.75 368.35 50.848 16.576 1.063 33.247-0.664 49.803 1.101 19.424 2.051 39.076 1.633 58.385-1.253-1.234-3.019-2.867-5.905-3.57-9.095 0.759-7.196 3.209-14.07 4.709-21.114 1.044-3.057-2.051-4.918-3.589-7.025-36.892-43.352-48.636-89.145-43.917-114.93 4.994-16.386 16.462-29.886 28.633-41.525 10.367-9.892 19.69-20.962 31.443-29.297 7.348-5.202 13.747-11.582 19.709-18.285 16.437-22.25 47.388-49.254 74.62-45.075 61.569-3.425 180.34 43.963 181.5 44.107 2.184-4.443 3.361-10.177 8.146-12.626-1.139 5.183-2.449 10.329-3.475 15.55 39.55 16.443 78.303 34.879 115.76 55.67 16.31 7.367 30.038 20.221 47.791 24.361 205.13 53.479 37.161 7.239 335.66 88.612 4.389 1.196 9.682 4.003 14.067 2.988 8.24-1.907 22.063-25.635 43.234-49.334 13.808-15.464 287.8-373.29 298.52-377.51m76.879 553.36c-37.139 2.278-74.202 4.785-111.38 6.513-0.532 2.259-1.082 4.5-1.576 6.778 30.077 2.443 44.328-2.735 139.57-5.43 2.753 0.095 4.823-2.658 3.835-5.278-9.853-2.906-20.258-4.425-30.454-2.583m-958.26 80.372c-2.373 11.449-2.279 23.183 0.361 34.595 2.544-0.968 5.146-2.07 6.797-4.329 6.987-8.601 16.006-15.987 19.747-26.753-8.81-2.146-17.829-3.589-26.905-3.513m361.4 69.189c-0.266 14.981 2.791 29.829 0.456 44.772 7.576-1.348 15.19-1.728 22.804-0.437 6.266-3.873 13.424-6.626 18.683-11.943 1.158-3.835-1.785-7.671-2.867-11.259-2.606 4.034-8.149 18.433-24.228 11.62-9.247-8.335-10.025-21.873-8.753-33.455-2.051 0.209-4.083 0.437-6.095 0.702z"/>
</svg>