<?xml version="1.0" encoding="utf-8"?>
<svg width="5in" height="5in" clip-rule="evenodd" fill-rule="evenodd" image-rendering="optimizeQuality" shape-rendering="geometricPrecision" text-rendering="geometricPrecision" version="1.1" viewBox="0 0 3200 2950" xmlns="http://www.w3.org/2000/svg">
  <defs>
    <style type="text/css">.fil0 {fill:black} .fil1 {fill:white}</style>
  </defs>
  <g transform="matrix(1, 0, 0, 1, -899.973206, -1026.993408)">
    <path class="fil0" d="M 4024 3028 C 4176 3292 4115 3621 3894 3814 C 3783 3913 3637 3973 3476 3973 C 2707 3612 2293 3613 1528 3973 C 1181 3973 900 3692 900 3345 C 899 3238 926 3128 984 3028 C 1679 2545 1887 2188 1958 1341 C 2075 1139 2286 1026 2504 1027 C 2721 1026 2933 1139 3050 1341 C 3121 2188 3329 2545 4024 3028 Z"/>
    <path class="fil1" d="M 3909 3344 C 3909 3106 3716 2913 3478 2913 C 3240 2913 3047 3106 3047 3344 C 3047 3582 3240 3775 3478 3775 C 3716 3775 3909 3582 3909 3344 Z"/>
    <path class="fil1" d="M 2935 1656 C 2935 1418 2742 1225 2504 1225 C 2266 1225 2073 1418 2073 1656 C 2073 1894 2266 2087 2504 2087 C 2742 2087 2935 1894 2935 1656 Z" style=""/>
    <path class="fil1" d="M 2935 2781 C 2935 2543 2742 2350 2504 2350 C 2266 2350 2073 2543 2073 2781 C 2073 3019 2266 3212 2504 3212 C 2742 3212 2935 3019 2935 2781 Z"/>
    <path class="fil1" d="M 1961 3344 C 1961 3106 1768 2913 1530 2913 C 1292 2913 1099 3106 1099 3344 C 1099 3582 1292 3775 1530 3775 C 1768 3775 1961 3582 1961 3344 Z"/>
  </g>
</svg>