<?xml version="1.0" encoding="utf-8"?>
<svg width="13in" height="18in" clip-rule="evenodd" fill-rule="evenodd" image-rendering="optimizeQuality" shape-rendering="geometricPrecision" text-rendering="geometricPrecision" version="1.1" viewBox="0 0 11100 10230" xmlns="http://www.w3.org/2000/svg">
  <defs>
    <style type="text/css">.fil0 {fill:#445FA9}</style>
  </defs>
  <g transform="matrix(1, 0, 0, 1, -943, -3443.591553)">
    <path class="fil0" d="M 8729 12392 C 8706 12381 8707 12384 8693 12364 C 8693 12363 8692 12362 8691 12361 C 8660 12319 8682 12357 8667 12321 L 8641 12282 C 8626 12262 8628 12272 8619 12245 C 8613 12230 8620 12248 8614 12235 C 8614 12234 8613 12232 8613 12231 L 8605 12213 C 8591 12188 8601 12218 8594 12186 C 8589 12161 8580 12165 8572 12142 L 8563 12116 C 8539 12083 8542 12058 8514 12006 C 8510 11998 8513 12004 8508 11997 L 8498 11979 C 8495 11972 8496 11970 8493 11963 C 8486 11947 8491 11961 8485 11951 L 8457 11846 C 8455 11833 8457 11821 8455 11808 C 8453 11796 8449 11793 8446 11773 C 8443 11757 8439 11756 8437 11743 C 8434 11719 8437 11683 8436 11659 C 8435 11629 8426 11615 8426 11580 C 8426 11556 8424 11519 8427 11497 C 8433 11457 8429 11378 8440 11340 C 8443 11326 8448 11318 8450 11306 C 8455 11273 8450 11268 8463 11235 C 8464 11234 8464 11233 8464 11232 C 8471 11215 8472 11221 8475 11202 C 8478 11181 8473 11182 8481 11163 L 8505 11103 C 8508 11089 8504 11080 8509 11067 C 8509 11065 8523 11043 8525 11039 C 8532 11029 8529 11037 8534 11023 L 8582 10922 C 8582 10921 8583 10920 8584 10919 L 8593 10899 C 8601 10887 8603 10891 8612 10867 C 8625 10831 8639 10847 8667 10793 L 8690 10752 C 8694 10744 8691 10749 8699 10742 C 8713 10727 8714 10713 8732 10690 C 8739 10682 8744 10684 8754 10667 C 8766 10648 8768 10657 8781 10639 C 8791 10625 8779 10642 8785 10633 C 8792 10619 8807 10619 8819 10609 C 8828 10601 8828 10592 8848 10573 L 8980 10451 C 8980 10450 8982 10449 8982 10449 L 9036 10398 L 9039 10395 L 9055 10382 C 9093 10354 9134 10332 9177 10311 L 9285 10261 C 9353 10227 9407 10223 9431 10213 L 9477 10196 C 9556 10174 9585 10178 9620 10169 L 9632 10166 C 9654 10158 9668 10159 9691 10158 C 9713 10158 9715 10154 9731 10153 C 9811 10146 9904 10154 9979 10158 C 10001 10159 9997 10164 10013 10167 C 10027 10170 10044 10167 10058 10168 L 10331 10244 C 10357 10262 10425 10288 10456 10300 L 10512 10331 C 10523 10338 10509 10332 10525 10339 L 10554 10354 C 10563 10359 10561 10358 10573 10362 L 10604 10380 C 10605 10381 10609 10383 10611 10383 C 10627 10393 10638 10411 10655 10422 L 10702 10455 C 10717 10466 10714 10467 10726 10479 C 10742 10497 10739 10485 10754 10494 L 10904 10651 C 10938 10681 10936 10694 10956 10717 C 10958 10719 10967 10735 10974 10743 L 10998 10769 C 10998 10770 10999 10771 10999 10772 C 11000 10773 11000 10774 11001 10775 L 11017 10803 C 11026 10822 11047 10839 11052 10856 L 11107 10972 C 11108 10973 11108 10974 11109 10975 L 11163 11105 C 11180 11137 11188 11179 11198 11213 C 11198 11214 11199 11216 11199 11217 L 11219 11331 C 11220 11335 11224 11344 11225 11345 C 11234 11376 11235 11677 11226 11716 C 11225 11720 11222 11724 11219 11733 C 11209 11764 11218 11808 11190 11893 L 11172 11960 C 11164 11997 11149 12018 11137 12053 C 11131 12071 11134 12077 11132 12096 C 11130 12115 11120 12119 11108 12144 L 11083 12193 C 11069 12221 11078 12211 11058 12230 C 11049 12238 11049 12245 11040 12259 L 10995 12332 C 10994 12333 10993 12334 10993 12335 L 10951 12393 C 10932 12419 10877 12485 10858 12498 L 10837 12518 C 10820 12543 10808 12547 10787 12566 L 10742 12606 C 10726 12623 10699 12652 10678 12659 C 10665 12664 10676 12657 10662 12665 L 10646 12678 C 10624 12692 10605 12711 10581 12722 L 10547 12743 C 10541 12747 10537 12750 10533 12754 L 10493 12784 C 10492 12785 10491 12786 10490 12786 C 10489 12787 10488 12787 10487 12788 L 10472 12795 C 10458 12801 10454 12800 10442 12806 C 10362 12846 10399 12833 10375 12849 L 10311 12873 C 10266 12888 10259 12885 10230 12897 L 10168 12914 C 10134 12926 10073 12925 10059 12930 C 10057 12930 10056 12931 10055 12931 C 10035 12938 9924 12943 9895 12943 C 9744 12943 9579 12943 9452 12896 C 9451 12895 9449 12895 9448 12894 L 9308 12846 C 9295 12840 9307 12844 9289 12839 C 9263 12832 9243 12819 9218 12807 L 9131 12765 C 9120 12758 9115 12754 9103 12747 L 9089 12738 C 9089 12737 9088 12736 9087 12735 L 9021 12690 C 9020 12690 9016 12688 9015 12687 C 9007 12682 9011 12684 9003 12679 L 8990 12672 C 8985 12669 8984 12667 8980 12664 C 8948 12634 8913 12616 8893 12596 L 8865 12565 C 8855 12553 8858 12553 8840 12550 C 8837 12512 8804 12513 8781 12480 C 8776 12473 8778 12474 8772 12468 L 8721 12415 C 8736 12417 8729 12416 8729 12392 Z M 7543 10101 C 7555 10080 7556 10060 7576 10050 C 7579 10013 7606 9948 7627 9915 L 7628 9913 C 7633 9905 7626 9906 7640 9899 C 7640 9869 7644 9870 7650 9846 C 7652 9838 7651 9832 7653 9821 C 7655 9811 7654 9816 7657 9809 C 7665 9786 7662 9769 7667 9743 C 7669 9732 7673 9731 7675 9720 L 7683 9570 C 7683 9443 7667 9325 7632 9208 L 7586 9082 C 7583 9074 7580 9063 7580 9056 C 7557 9055 7557 9031 7548 9013 L 7539 8995 C 7533 8982 7528 8978 7520 8967 C 7505 8945 7491 8907 7475 8888 L 7418 8815 L 7416 8813 C 7415 8812 7409 8808 7409 8807 C 7398 8796 7400 8788 7391 8777 C 7365 8750 7269 8651 7249 8639 L 7199 8602 L 7197 8599 C 7196 8599 7195 8598 7195 8597 L 7178 8579 L 7176 8578 L 6998 8471 C 6989 8466 6981 8467 6971 8464 C 6954 8458 6961 8455 6940 8448 L 6890 8424 C 6869 8417 6854 8409 6832 8405 L 6814 8400 L 6774 8387 C 6763 8381 6745 8382 6731 8380 C 6714 8377 6719 8375 6712 8373 C 6688 8367 6688 8381 6676 8359 L 6641 8359 C 6628 8341 6412 8339 6387 8342 C 6364 8345 6321 8345 6297 8354 C 6276 8362 6245 8360 6224 8364 C 6214 8367 6194 8367 6184 8371 C 6154 8384 6138 8379 6107 8389 L 5885 8482 C 5864 8495 5839 8501 5820 8516 C 5809 8524 5805 8533 5792 8541 L 5751 8568 C 5728 8586 5721 8584 5704 8595 C 5679 8612 5659 8635 5638 8657 C 5637 8658 5636 8659 5635 8659 L 5633 8662 L 5624 8667 C 5623 8667 5622 8668 5621 8668 L 5571 8717 C 5570 8718 5569 8718 5569 8719 C 5567 8720 5564 8722 5563 8722 L 5432 8879 L 5388 8957 C 5387 8958 5386 8959 5386 8960 L 5372 8978 C 5368 8986 5366 8988 5363 8995 C 5362 8996 5362 8997 5361 8998 L 5360 9001 C 5356 9010 5359 9004 5356 9010 L 5259 9267 C 5253 9285 5261 9281 5249 9306 L 5227 9466 C 5227 9474 5227 9481 5226 9489 L 5223 9601 L 5241 9792 C 5242 9799 5243 9806 5245 9815 C 5246 9822 5253 9838 5253 9856 C 5276 9859 5265 9870 5275 9914 L 5312 10009 C 5313 10010 5313 10011 5314 10012 C 5330 10051 5327 10064 5357 10116 L 5385 10170 C 5389 10176 5391 10181 5393 10183 L 5396 10189 C 5398 10192 5400 10197 5400 10198 L 5415 10222 L 5417 10224 L 5506 10343 C 5511 10349 5509 10347 5513 10352 C 5514 10353 5517 10355 5518 10356 L 5613 10455 L 5616 10457 L 5618 10459 L 5635 10477 C 5686 10517 5671 10494 5720 10539 C 5728 10546 5732 10548 5742 10556 C 5754 10565 5756 10565 5766 10575 C 5767 10575 5768 10576 5768 10577 L 5949 10680 C 5956 10683 5957 10681 5966 10684 L 5976 10688 C 6005 10701 6077 10708 6099 10717 L 6133 10731 C 6171 10750 6184 10731 6213 10746 C 6256 10769 6310 10762 6360 10766 C 6398 10768 6363 10773 6394 10774 L 6559 10774 C 6581 10773 6573 10771 6589 10767 C 6604 10763 6617 10766 6632 10764 C 6654 10762 6674 10751 6691 10744 L 6823 10712 C 6846 10700 6821 10706 6857 10701 C 6882 10697 6853 10693 6890 10692 C 6894 10662 6908 10679 6928 10666 L 6948 10646 C 6971 10646 6960 10645 6976 10640 L 7013 10625 L 7015 10623 C 7022 10619 7022 10619 7028 10615 L 7034 10611 L 7040 10608 C 7078 10590 7060 10597 7088 10578 C 7121 10557 7137 10562 7173 10534 L 7202 10508 C 7212 10499 7206 10504 7216 10499 C 7243 10488 7239 10480 7261 10466 C 7299 10444 7292 10424 7318 10407 L 7356 10372 C 7371 10356 7377 10362 7395 10333 C 7404 10317 7421 10307 7429 10290 L 7449 10262 L 7451 10260 C 7483 10219 7513 10169 7533 10122 L 7542 10104 L 7543 10101 Z M 1709 11868 C 1709 11847 1701 11829 1699 11821 C 1697 11811 1697 11802 1695 11795 L 1674 11575 L 1678 11446 C 1679 11437 1679 11429 1679 11420 L 1704 11236 C 1718 11207 1709 11212 1716 11191 L 1827 10896 C 1831 10889 1828 10896 1832 10886 C 1833 10885 1833 10883 1834 10882 C 1834 10881 1835 10880 1835 10879 C 1839 10871 1841 10868 1845 10860 L 1861 10838 L 1864 10835 L 1914 10746 L 2065 10566 C 2067 10565 2070 10562 2072 10561 C 2072 10561 2074 10560 2075 10559 L 2132 10503 C 2133 10503 2134 10502 2135 10502 L 2145 10496 L 2148 10493 L 2151 10490 C 2175 10465 2199 10439 2227 10419 C 2246 10406 2254 10408 2281 10388 L 2329 10357 C 2343 10348 2348 10338 2360 10328 C 2383 10311 2411 10304 2435 10289 L 2691 10183 C 2726 10171 2745 10177 2779 10162 C 2790 10158 2813 10157 2825 10154 C 2849 10148 2885 10152 2909 10142 C 2936 10131 2986 10132 3013 10129 C 3041 10125 3289 10128 3304 10148 L 3344 10148 C 3358 10173 3358 10157 3385 10164 C 3394 10166 3388 10169 3408 10172 C 3424 10174 3444 10173 3457 10180 L 3503 10196 C 3503 10196 3522 10201 3523 10201 C 3549 10205 3566 10214 3590 10223 L 3647 10250 C 3672 10258 3664 10261 3683 10268 C 3695 10272 3704 10271 3714 10276 L 3918 10399 C 3919 10400 3920 10401 3921 10401 L 3940 10421 L 3943 10424 C 3943 10425 3944 10426 3945 10427 L 4003 10470 C 4025 10483 4136 10598 4165 10628 C 4177 10640 4174 10650 4186 10663 C 4187 10664 4193 10669 4194 10670 C 4195 10670 4197 10671 4197 10672 L 4262 10756 C 4281 10778 4297 10821 4315 10847 C 4323 10859 4329 10863 4336 10878 L 4346 10899 C 4356 10920 4357 10947 4383 10948 C 4384 10957 4386 10969 4390 10979 L 4443 11124 C 4483 11258 4502 11393 4502 11540 L 4492 11712 C 4490 11724 4485 11725 4483 11738 C 4478 11768 4481 11788 4471 11814 C 4468 11823 4469 11817 4468 11827 C 4465 11841 4466 11848 4463 11857 C 4457 11884 4452 11883 4452 11917 C 4437 11926 4444 11924 4439 11933 C 4438 11934 4437 11935 4437 11936 C 4413 11974 4382 12048 4379 12091 C 4356 12103 4354 12125 4341 12150 C 4340 12151 4340 12152 4339 12153 L 4330 12174 C 4306 12228 4271 12285 4235 12332 C 4235 12333 4234 12334 4233 12335 L 4210 12367 C 4200 12386 4181 12398 4170 12417 C 4150 12449 4143 12443 4126 12461 L 4082 12501 C 4052 12521 4060 12543 4016 12569 C 3991 12585 3996 12595 3965 12607 C 3954 12612 3960 12608 3949 12617 L 3915 12647 C 3873 12679 3856 12673 3817 12698 C 3785 12719 3806 12712 3762 12733 C 3761 12734 3757 12736 3756 12736 L 3749 12740 C 3742 12745 3742 12745 3734 12750 C 3733 12750 3732 12751 3731 12751 L 3690 12769 C 3671 12775 3683 12776 3657 12776 L 3634 12799 C 3611 12814 3595 12795 3590 12829 C 3548 12830 3581 12835 3552 12839 C 3511 12845 3540 12838 3514 12852 L 3362 12889 C 3342 12897 3319 12909 3293 12912 C 3276 12914 3261 12911 3245 12915 C 3226 12919 3235 12922 3210 12923 L 3021 12923 C 2984 12921 3025 12917 2982 12914 C 2924 12909 2862 12918 2812 12891 C 2779 12874 2764 12895 2720 12874 L 2681 12858 C 2656 12847 2573 12839 2540 12825 L 2529 12820 C 2518 12816 2517 12818 2509 12815 L 2301 12697 C 2301 12696 2300 12695 2299 12694 C 2288 12683 2285 12683 2271 12672 C 2259 12664 2254 12661 2246 12653 C 2190 12601 2207 12628 2147 12582 L 2128 12561 L 2126 12559 L 2123 12556 L 2013 12443 L 2008 12438 C 2003 12433 2005 12435 2000 12427 L 1897 12291 C 1897 12290 1896 12289 1895 12289 L 1878 12261 C 1878 12260 1875 12255 1873 12251 C 1873 12250 1870 12246 1870 12244 C 1868 12241 1865 12235 1861 12229 L 1828 12167 C 1794 12107 1798 12093 1779 12048 C 1778 12046 1778 12045 1777 12044 L 1735 11934 C 1723 11884 1736 11872 1709 11868 Z M 6714 4288 C 6724 4309 6733 4306 6777 4313 C 6791 4315 6798 4318 6813 4321 C 6829 4324 6836 4326 6849 4330 L 7011 4392 C 7034 4400 7063 4408 7085 4420 C 7086 4421 7090 4423 7091 4424 L 7152 4453 C 7164 4459 7171 4471 7184 4476 L 7191 4479 C 7224 4494 7242 4528 7277 4546 L 7303 4564 C 7318 4578 7322 4580 7331 4599 C 7339 4616 7349 4617 7366 4626 L 7453 4712 C 7507 4762 7489 4761 7508 4776 C 7527 4792 7539 4799 7554 4820 L 7573 4841 C 7608 4864 7595 4864 7624 4894 L 7731 5074 C 7763 5117 7769 5163 7779 5181 L 7790 5213 C 7790 5214 7792 5219 7792 5221 C 7797 5236 7794 5257 7805 5274 C 7821 5297 7812 5267 7819 5297 L 7831 5346 C 7840 5365 7839 5386 7846 5406 C 7854 5427 7850 5417 7853 5442 C 7856 5461 7863 5492 7867 5517 C 7877 5598 7872 5691 7872 5774 C 7872 5814 7858 5934 7847 5965 L 7842 5987 C 7841 5996 7842 5995 7840 6004 L 7830 6039 C 7830 6040 7823 6073 7822 6076 L 7786 6171 C 7764 6202 7760 6257 7734 6293 L 7660 6439 C 7655 6447 7655 6446 7650 6453 L 7620 6488 C 7606 6505 7600 6525 7585 6541 L 7530 6611 C 7511 6630 7495 6657 7474 6673 C 7469 6677 7468 6678 7463 6683 L 7341 6783 C 7319 6798 7333 6794 7323 6807 L 7062 6965 C 7047 6973 7057 6968 7048 6972 L 6883 7029 C 6854 7036 6863 7043 6785 7061 L 6728 7073 C 6726 7073 6725 7074 6724 7074 C 6722 7075 6721 7075 6720 7076 L 6674 7081 C 6640 7082 6614 7097 6560 7097 C 6500 7096 6440 7096 6381 7096 C 6324 7097 6276 7083 6227 7077 C 6197 7074 6176 7069 6153 7063 C 6115 7052 6045 7042 6010 7028 L 5859 6961 C 5826 6945 5812 6942 5779 6922 L 5683 6864 C 5682 6863 5681 6863 5680 6862 L 5639 6829 C 5631 6823 5638 6827 5630 6822 C 5629 6822 5627 6821 5626 6821 C 5625 6820 5624 6820 5623 6819 C 5622 6818 5621 6818 5620 6818 L 5586 6792 C 5576 6785 5571 6781 5562 6772 L 5504 6720 C 5498 6715 5495 6714 5492 6712 L 5460 6677 C 5453 6667 5459 6672 5448 6665 C 5420 6645 5397 6609 5375 6581 L 5268 6429 C 5251 6409 5255 6410 5245 6385 L 5135 6163 C 5133 6154 5134 6156 5133 6147 C 5130 6131 5111 6087 5103 6047 C 5097 6019 5097 6038 5089 6015 C 5077 5978 5075 5946 5068 5903 C 5064 5874 5069 5902 5062 5882 C 5053 5857 5063 5808 5058 5784 L 5051 5769 C 5044 5750 5049 5725 5049 5705 C 5049 5622 5058 5594 5059 5536 C 5059 5487 5073 5429 5081 5386 C 5084 5371 5084 5361 5088 5349 L 5100 5315 C 5101 5307 5106 5290 5109 5280 C 5117 5254 5121 5254 5129 5231 C 5137 5209 5147 5194 5153 5169 C 5155 5157 5151 5165 5156 5155 L 5165 5138 C 5168 5130 5167 5126 5169 5122 L 5180 5109 C 5180 5109 5185 5095 5186 5093 C 5190 5078 5185 5087 5192 5077 C 5213 5047 5205 5069 5214 5032 C 5220 5006 5245 4973 5262 4953 C 5278 4933 5284 4909 5296 4893 L 5299 4890 L 5333 4845 C 5335 4842 5339 4837 5343 4831 C 5348 4825 5349 4823 5352 4819 L 5487 4667 L 5497 4657 L 5618 4559 L 5804 4439 C 5813 4436 5814 4438 5824 4434 C 5836 4428 5840 4418 5852 4413 L 5913 4389 C 5916 4387 5924 4386 5927 4385 C 5945 4379 5942 4377 5945 4375 C 5970 4355 5926 4378 5956 4368 C 5962 4366 5974 4363 5976 4362 L 6021 4344 C 6095 4326 6186 4299 6272 4288 C 6355 4277 6432 4269 6520 4273 C 6538 4274 6538 4278 6559 4278 C 6587 4280 6618 4276 6646 4280 L 6714 4288 Z M 943 11187 L 943 11672 C 960 11678 955 11672 955 11709 C 954 11723 954 11737 958 11750 C 961 11757 961 11747 965 11768 L 966 11826 C 972 11831 974 11832 983 11838 C 988 11892 997 11889 998 11922 C 998 11987 1022 12027 1040 12083 C 1063 12153 1044 12122 1076 12208 C 1087 12240 1102 12259 1105 12267 L 1128 12335 C 1152 12392 1143 12365 1161 12391 C 1171 12407 1178 12434 1191 12454 C 1203 12472 1215 12490 1222 12512 C 1230 12538 1239 12556 1251 12574 L 1286 12628 C 1300 12656 1320 12661 1328 12676 C 1333 12685 1331 12696 1339 12709 C 1348 12724 1352 12721 1363 12731 C 1378 12745 1387 12766 1401 12782 L 1429 12814 C 1430 12814 1431 12815 1432 12816 L 1443 12828 C 1469 12882 1444 12846 1498 12894 C 1513 12908 1510 12916 1527 12930 C 1550 12948 1548 12958 1567 12978 C 1587 12998 1598 12997 1615 13020 L 1707 13107 C 1716 13114 1724 13117 1733 13125 C 1748 13138 1763 13158 1781 13168 C 1813 13187 1834 13213 1863 13225 C 1878 13232 1878 13234 1888 13245 C 1910 13270 1942 13278 1968 13298 C 1980 13307 1984 13307 1996 13315 C 2033 13341 2028 13327 2080 13365 C 2091 13374 2163 13403 2197 13427 C 2233 13452 2212 13444 2265 13449 C 2279 13464 2288 13470 2307 13476 L 2412 13511 C 2461 13534 2509 13553 2564 13558 C 2599 13561 2631 13582 2668 13587 C 2699 13592 2693 13597 2728 13599 C 2772 13601 2740 13613 2847 13613 C 2907 13614 2845 13630 2961 13631 C 2996 13631 3004 13646 3145 13645 C 3183 13645 3248 13648 3283 13644 L 3324 13631 C 3327 13630 3335 13631 3339 13631 C 3359 13630 3384 13632 3399 13627 C 3424 13620 3402 13622 3424 13617 C 3455 13610 3492 13616 3523 13615 C 3554 13614 3545 13604 3577 13601 C 3623 13597 3595 13591 3627 13587 C 3640 13585 3645 13588 3659 13583 L 3736 13560 C 3782 13556 3826 13536 3867 13523 C 3893 13514 3872 13523 3889 13511 C 3910 13498 3918 13506 3941 13497 L 3967 13488 C 3971 13486 3987 13480 3991 13478 C 4007 13469 4017 13463 4035 13455 L 4035 13449 C 4100 13442 4111 13409 4146 13395 C 4160 13390 4177 13393 4187 13387 C 4195 13381 4191 13381 4202 13372 C 4238 13340 4286 13331 4317 13303 C 4329 13293 4330 13284 4345 13278 L 4380 13257 C 4389 13251 4390 13252 4399 13247 L 4428 13226 C 4447 13215 4453 13203 4474 13192 C 4495 13181 4476 13193 4492 13180 C 4518 13158 4545 13157 4556 13114 C 4608 13105 4611 13075 4647 13052 C 4673 13036 4653 13029 4697 13001 L 4767 12924 C 4788 12902 4816 12884 4830 12857 C 4850 12820 4850 12840 4868 12815 C 4869 12814 4869 12813 4870 12812 C 4870 12811 4871 12810 4872 12809 L 4948 12701 C 4957 12685 4956 12680 4968 12667 C 4977 12657 4984 12652 4991 12640 C 4995 12632 4995 12630 4999 12623 C 5010 12605 4998 12623 5011 12610 L 5063 12512 C 5079 12487 5090 12500 5105 12454 C 5112 12433 5134 12417 5149 12396 C 5172 12364 5203 12335 5214 12311 L 5222 12293 C 5232 12273 5258 12264 5271 12244 C 5290 12214 5304 12225 5326 12195 C 5348 12164 5333 12176 5365 12155 C 5388 12139 5380 12131 5407 12117 C 5420 12110 5427 12112 5436 12106 C 5445 12099 5442 12091 5488 12059 C 5505 12048 5515 12049 5529 12040 C 5549 12027 5548 12011 5570 12002 C 5585 11996 5586 11995 5597 11989 L 5691 11930 C 5698 11928 5698 11928 5706 11925 C 5714 11921 5710 11923 5719 11917 C 5729 11912 5736 11908 5745 11904 C 5784 11884 5826 11877 5860 11859 L 5880 11849 C 5881 11848 5882 11848 5883 11847 C 5884 11846 5885 11845 5886 11845 C 5903 11834 5894 11838 5919 11836 C 5944 11835 5958 11827 5980 11820 L 6163 11770 C 6199 11761 6271 11760 6310 11756 C 6330 11754 6353 11745 6376 11743 C 6423 11738 6486 11746 6530 11748 C 6550 11748 6547 11743 6564 11744 C 6579 11744 6580 11750 6595 11752 C 6617 11756 6647 11753 6669 11753 C 6693 11754 6776 11780 6798 11781 C 6888 11788 6818 11791 6928 11812 C 6950 11816 6938 11817 6958 11822 L 7022 11837 C 7047 11843 7028 11841 7047 11852 C 7061 11860 7086 11870 7102 11878 C 7129 11890 7124 11889 7161 11894 C 7183 11921 7175 11917 7208 11929 C 7237 11940 7225 11946 7271 11948 C 7294 11989 7335 11993 7371 12021 C 7396 12040 7401 12054 7439 12059 C 7456 12085 7476 12101 7498 12117 L 7578 12187 C 7585 12194 7584 12195 7591 12203 L 7621 12233 C 7641 12258 7660 12271 7681 12292 L 7707 12326 C 7717 12336 7726 12347 7735 12358 C 7765 12394 7769 12388 7776 12405 L 7833 12498 C 7850 12521 7846 12532 7868 12553 C 7872 12557 7869 12555 7876 12559 C 7877 12560 7883 12563 7885 12564 C 7889 12609 7914 12616 7932 12652 L 7960 12695 C 7970 12710 7986 12717 7992 12727 C 8006 12749 7989 12746 8017 12772 C 8029 12783 8038 12792 8046 12807 L 8073 12845 C 8083 12856 8089 12872 8099 12883 C 8109 12894 8110 12888 8118 12899 C 8138 12924 8132 12925 8166 12950 C 8187 12965 8179 12971 8197 12984 C 8221 13000 8226 13015 8246 13034 C 8256 13043 8257 13041 8266 13049 C 8279 13060 8287 13072 8298 13082 C 8308 13092 8308 13090 8318 13097 C 8333 13107 8323 13101 8333 13111 C 8414 13192 8379 13148 8448 13206 L 8489 13234 C 8530 13273 8552 13279 8594 13313 C 8616 13332 8651 13339 8673 13363 C 8684 13374 8674 13372 8693 13378 C 8730 13392 8767 13416 8802 13432 L 8853 13448 C 8872 13454 8880 13465 8898 13473 C 8923 13483 8944 13497 8970 13501 C 8988 13505 8975 13501 8989 13509 L 9081 13552 C 9101 13560 9117 13555 9135 13562 C 9179 13579 9173 13584 9230 13597 C 9241 13600 9248 13598 9260 13601 C 9275 13605 9271 13608 9285 13612 C 9307 13617 9317 13609 9343 13619 L 9397 13630 C 9422 13637 9397 13634 9422 13639 C 9441 13642 9464 13639 9479 13646 C 9503 13659 9541 13656 9567 13659 C 9688 13675 9825 13669 9949 13669 C 10093 13669 10025 13657 10133 13654 L 10189 13644 C 10202 13641 10210 13644 10222 13642 L 10299 13619 C 10321 13609 10332 13616 10357 13613 C 10378 13610 10410 13594 10430 13587 C 10442 13584 10447 13585 10458 13581 C 10467 13577 10472 13573 10482 13571 C 10495 13568 10496 13570 10508 13566 C 10527 13559 10543 13559 10560 13552 L 10651 13510 C 10673 13498 10687 13508 10706 13499 L 10728 13483 C 10729 13482 10731 13481 10732 13481 L 10745 13475 C 10764 13467 10771 13469 10779 13448 C 10827 13444 10847 13431 10879 13404 C 10880 13403 10881 13402 10882 13402 C 10892 13393 10902 13391 10915 13386 L 10942 13372 C 10961 13354 10986 13340 11013 13334 C 11085 13318 11023 13297 11101 13278 C 11125 13272 11131 13256 11147 13240 C 11148 13239 11149 13238 11149 13237 C 11170 13216 11192 13218 11210 13193 C 11218 13181 11220 13174 11233 13168 C 11239 13165 11235 13168 11244 13163 L 11315 13105 C 11325 13096 11328 13085 11337 13077 C 11355 13060 11378 13057 11389 13034 C 11406 12998 11408 13016 11433 12988 C 11453 12966 11449 12965 11472 12947 L 11509 12911 C 11526 12894 11537 12878 11549 12856 C 11560 12834 11574 12826 11592 12799 C 11612 12767 11636 12754 11642 12738 L 11644 12731 C 11647 12724 11650 12722 11653 12716 L 11673 12687 C 11706 12644 11727 12589 11763 12548 C 11764 12547 11765 12546 11766 12546 C 11766 12545 11767 12544 11768 12543 C 11785 12523 11758 12561 11772 12538 C 11789 12511 11761 12520 11791 12487 C 11805 12472 11813 12467 11818 12445 L 11872 12319 C 11881 12291 11901 12226 11917 12205 C 11930 12190 11925 12171 11929 12151 C 11932 12132 11936 12140 11942 12121 C 11946 12109 11944 12096 11948 12083 C 11966 12025 11990 11968 11999 11905 C 12002 11879 11995 11842 12005 11821 C 12013 11803 12014 11819 12016 11789 C 12018 11741 12031 11719 12030 11669 C 12030 11619 12035 11627 12039 11589 C 12044 11554 12032 11491 12046 11460 C 12054 11441 12055 11454 12056 11421 C 12056 11410 12057 11386 12052 11377 L 12031 11356 C 12030 11326 12017 11169 12011 11149 C 12000 11118 11998 11135 11999 11088 C 11999 11058 11990 10986 11977 10959 C 11968 10941 11973 10951 11969 10929 L 11954 10874 C 11950 10861 11947 10863 11944 10850 C 11940 10836 11943 10828 11940 10814 C 11932 10774 11908 10733 11893 10695 C 11893 10694 11892 10693 11892 10692 C 11887 10677 11891 10661 11885 10648 L 11842 10563 C 11835 10551 11835 10535 11830 10518 C 11822 10489 11802 10446 11777 10431 C 11774 10403 11770 10388 11756 10365 C 11747 10350 11746 10351 11736 10340 L 11692 10258 C 11686 10244 11686 10247 11675 10237 C 11656 10219 11621 10159 11607 10135 C 11593 10109 11563 10094 11552 10069 C 11543 10048 11530 10039 11515 10024 C 11502 10010 11492 9991 11479 9976 L 11413 9912 C 11413 9911 11411 9910 11411 9910 L 11406 9905 L 11403 9902 L 11376 9869 C 11358 9854 11370 9870 11356 9851 C 11344 9835 11345 9840 11333 9828 C 11304 9802 11278 9772 11248 9749 C 11239 9743 11232 9740 11224 9733 L 11156 9677 C 11143 9667 11142 9670 11130 9663 C 11118 9655 11103 9637 11085 9624 C 11073 9616 11067 9615 11056 9608 C 11045 9601 11044 9596 11035 9589 C 11025 9580 11022 9583 11011 9574 C 10990 9556 11013 9564 10988 9557 C 10950 9545 10959 9549 10934 9526 C 10918 9511 10898 9506 10877 9499 C 10855 9491 10815 9459 10770 9442 L 10714 9413 C 10682 9392 10616 9387 10592 9366 C 10570 9346 10562 9354 10536 9343 L 10409 9305 C 10386 9300 10394 9297 10379 9292 L 10347 9284 C 10323 9275 10299 9279 10272 9278 C 10243 9258 10265 9266 10223 9260 C 10202 9256 10200 9249 10168 9249 C 10123 9248 10139 9244 10116 9237 C 10102 9232 10070 9236 10053 9235 C 10027 9232 10034 9222 9999 9221 L 9735 9221 C 9695 9221 9708 9217 9683 9208 C 9648 9197 9606 9215 9564 9197 C 9537 9186 9529 9195 9502 9190 C 9477 9184 9493 9179 9452 9177 C 9423 9175 9429 9167 9398 9166 C 9363 9165 9326 9144 9293 9135 C 9266 9128 9286 9132 9270 9123 C 9269 9122 9250 9115 9250 9115 C 9224 9107 9221 9116 9196 9103 L 9153 9082 C 9143 9077 9137 9076 9127 9072 C 9125 9071 9121 9069 9120 9069 C 9119 9068 9118 9067 9117 9067 C 9116 9066 9115 9065 9114 9065 C 9087 9048 9089 9064 9060 9040 C 9048 9029 9032 9024 9015 9018 C 8997 9012 8994 9004 8973 8996 C 8937 8983 8950 8970 8892 8944 C 8868 8934 8842 8905 8818 8889 C 8790 8872 8771 8851 8743 8834 C 8716 8817 8716 8785 8669 8779 C 8662 8757 8651 8738 8632 8727 C 8610 8715 8615 8713 8601 8693 L 8518 8602 C 8500 8586 8495 8561 8478 8542 C 8447 8507 8462 8524 8438 8484 C 8416 8447 8392 8440 8393 8395 C 8367 8382 8362 8355 8346 8332 C 8329 8308 8339 8319 8330 8292 C 8324 8273 8327 8287 8320 8274 C 8316 8266 8316 8265 8312 8256 C 8308 8246 8300 8230 8294 8220 C 8279 8194 8284 8217 8278 8181 C 8273 8155 8260 8126 8249 8101 C 8240 8082 8243 8077 8236 8058 C 8229 8037 8223 8051 8221 8021 C 8219 7978 8213 7967 8206 7927 C 8203 7909 8193 7907 8192 7887 C 8190 7844 8182 7832 8180 7787 C 8179 7763 8176 7766 8170 7748 C 8157 7708 8165 7541 8166 7479 C 8166 7443 8171 7457 8176 7434 C 8184 7400 8174 7379 8187 7341 C 8194 7317 8200 7274 8205 7248 C 8208 7230 8216 7226 8220 7212 C 8227 7192 8218 7185 8228 7165 L 8273 7046 C 8286 7019 8268 7017 8292 6985 L 8350 6864 C 8376 6830 8398 6769 8423 6729 C 8444 6696 8439 6672 8453 6653 C 8476 6623 8487 6582 8505 6547 L 8550 6463 C 8563 6445 8556 6437 8560 6415 C 8563 6404 8566 6403 8570 6389 C 8572 6381 8571 6381 8574 6373 L 8597 6317 C 8606 6288 8609 6239 8620 6219 C 8631 6199 8655 6100 8655 6078 C 8656 6041 8658 6049 8664 6022 C 8673 5985 8660 5922 8668 5889 C 8672 5868 8682 5873 8682 5834 C 8682 5714 8695 5778 8695 5650 C 8695 5559 8685 5560 8684 5531 C 8683 5402 8685 5480 8669 5415 C 8660 5383 8673 5314 8663 5284 C 8658 5268 8656 5282 8653 5262 C 8651 5253 8653 5239 8652 5228 C 8651 5218 8642 5184 8638 5176 C 8626 5148 8632 5148 8625 5125 C 8618 5101 8612 5125 8611 5073 C 8611 5048 8604 5036 8598 5018 C 8586 4980 8588 4972 8573 4944 L 8557 4895 C 8554 4884 8554 4880 8552 4870 L 8507 4781 C 8493 4763 8503 4757 8492 4732 C 8481 4707 8481 4707 8480 4676 C 8434 4647 8456 4628 8420 4580 C 8398 4552 8397 4570 8387 4533 L 8343 4463 C 8335 4451 8338 4447 8331 4436 C 8327 4428 8321 4423 8315 4412 C 8307 4399 8316 4411 8307 4400 L 8280 4368 C 8274 4359 8272 4351 8266 4341 C 8257 4330 8240 4316 8230 4303 L 8197 4256 C 8185 4241 8172 4232 8162 4213 L 8153 4196 C 8153 4194 8152 4193 8151 4192 C 8151 4191 8148 4187 8148 4186 C 8135 4168 8141 4182 8124 4170 C 8110 4160 8109 4143 8090 4130 C 8029 4089 8073 4101 8008 4057 C 7999 4051 7984 4023 7975 4012 L 7886 3946 C 7885 3946 7875 3938 7874 3937 C 7859 3927 7862 3922 7843 3909 C 7821 3894 7794 3888 7775 3869 L 7770 3863 C 7765 3858 7758 3851 7752 3846 C 7737 3835 7736 3842 7725 3833 C 7702 3816 7690 3790 7658 3780 L 7621 3759 C 7563 3715 7562 3731 7535 3711 C 7506 3690 7474 3676 7441 3660 L 7380 3627 C 7362 3618 7340 3617 7324 3608 L 7270 3584 C 7252 3579 7255 3579 7243 3575 C 7219 3566 7206 3559 7181 3557 C 7145 3554 7157 3545 7116 3544 C 7106 3540 7104 3526 7071 3518 C 7038 3510 7058 3520 7015 3505 C 6994 3497 6967 3506 6950 3500 C 6936 3495 6947 3492 6927 3488 C 6917 3486 6906 3487 6895 3485 C 6873 3481 6862 3474 6838 3473 L 6717 3456 C 6712 3453 6706 3446 6689 3445 C 6627 3441 6403 3447 6306 3445 C 6297 3445 6280 3444 6271 3446 C 6238 3452 6278 3454 6187 3465 C 6162 3468 6154 3475 6127 3475 C 6096 3476 6092 3483 6070 3487 C 6058 3490 6050 3489 6038 3492 C 6019 3498 6040 3497 6013 3501 C 5987 3504 5971 3498 5947 3506 C 5930 3512 5911 3515 5892 3521 L 5812 3545 C 5799 3550 5806 3553 5789 3556 C 5778 3558 5767 3556 5755 3558 L 5701 3574 C 5687 3578 5697 3575 5687 3580 L 5666 3593 C 5656 3598 5664 3594 5655 3597 L 5579 3626 C 5564 3633 5567 3635 5558 3639 C 5545 3644 5546 3640 5531 3647 C 5513 3657 5509 3665 5487 3673 C 5454 3686 5466 3675 5443 3699 C 5420 3722 5339 3745 5317 3778 C 5272 3784 5269 3800 5226 3829 C 5225 3830 5223 3831 5222 3831 L 5187 3854 C 5167 3866 5170 3871 5158 3888 C 5127 3892 5128 3890 5112 3909 C 5091 3934 5066 3948 5039 3965 L 4966 4021 C 4959 4028 4956 4033 4949 4040 C 4894 4092 4876 4123 4841 4155 C 4790 4201 4795 4213 4766 4244 L 4751 4259 C 4739 4275 4752 4264 4735 4277 L 4664 4366 C 4648 4402 4643 4392 4614 4440 C 4603 4458 4599 4464 4588 4479 C 4570 4505 4559 4539 4542 4562 C 4523 4589 4506 4614 4498 4648 C 4494 4667 4492 4667 4482 4681 C 4444 4736 4448 4746 4427 4802 L 4405 4843 C 4390 4866 4392 4892 4382 4915 C 4376 4930 4366 4941 4361 4957 C 4357 4969 4358 4974 4354 4985 C 4322 5071 4337 5079 4323 5109 L 4305 5155 C 4297 5181 4307 5167 4292 5206 C 4285 5223 4291 5244 4285 5264 C 4279 5289 4277 5292 4276 5322 C 4276 5340 4280 5368 4274 5383 C 4267 5401 4259 5403 4259 5431 C 4259 5504 4249 5511 4247 5550 C 4246 5599 4241 5772 4252 5805 C 4269 5855 4254 5874 4263 5924 C 4267 5948 4275 5939 4276 5973 C 4276 5993 4275 6013 4277 6033 L 4292 6118 C 4297 6140 4300 6130 4306 6167 L 4320 6220 C 4324 6230 4327 6226 4330 6238 C 4332 6248 4330 6261 4332 6272 C 4336 6293 4339 6275 4346 6321 L 4368 6396 C 4368 6397 4378 6409 4380 6414 C 4387 6428 4383 6424 4385 6440 C 4388 6468 4394 6460 4400 6489 C 4407 6521 4437 6543 4442 6575 C 4448 6612 4469 6648 4487 6679 L 4500 6711 C 4504 6721 4507 6721 4513 6733 C 4517 6742 4517 6748 4520 6756 C 4525 6767 4535 6779 4552 6783 C 4553 6808 4551 6805 4560 6824 L 4591 6884 C 4598 6897 4600 6902 4605 6914 L 4694 7144 C 4704 7189 4717 7211 4718 7256 L 4746 7409 C 4746 7444 4750 7460 4754 7490 C 4762 7547 4760 7601 4760 7663 C 4760 7693 4754 7720 4749 7746 C 4743 7771 4750 7804 4741 7828 C 4731 7859 4738 7881 4730 7907 C 4720 7941 4720 7944 4720 7986 C 4712 8011 4710 7983 4701 8025 C 4698 8037 4692 8056 4687 8067 C 4678 8087 4680 8092 4673 8112 C 4667 8126 4668 8112 4665 8135 C 4658 8192 4663 8146 4646 8191 C 4642 8201 4640 8211 4632 8221 C 4612 8247 4617 8257 4607 8291 C 4602 8307 4591 8317 4579 8327 L 4574 8332 C 4569 8338 4573 8329 4567 8343 C 4561 8358 4552 8403 4545 8412 L 4504 8464 C 4494 8481 4500 8481 4487 8498 L 4426 8576 C 4417 8587 4414 8589 4404 8599 C 4392 8613 4388 8627 4374 8639 C 4347 8663 4325 8704 4295 8724 C 4282 8733 4283 8740 4274 8752 C 4268 8761 4262 8767 4252 8775 L 4150 8857 C 4135 8873 4137 8859 4124 8875 C 4116 8884 4126 8878 4113 8889 L 4087 8907 C 4057 8923 4051 8936 4017 8953 C 3998 8962 3963 8991 3932 9006 C 3901 9021 3890 9039 3858 9050 L 3778 9085 C 3761 9094 3775 9087 3762 9095 L 3563 9154 C 3546 9158 3548 9164 3532 9167 C 3496 9173 3489 9161 3451 9177 C 3430 9185 3431 9180 3408 9183 C 3379 9186 3401 9189 3377 9195 C 3353 9201 3308 9191 3285 9199 C 3243 9213 3290 9211 3205 9211 L 3115 9211 C 2999 9210 3002 9224 2941 9223 C 2914 9223 2873 9220 2847 9224 C 2822 9228 2840 9232 2772 9239 C 2758 9259 2688 9256 2660 9266 C 2646 9271 2652 9276 2628 9278 C 2613 9279 2594 9277 2579 9279 L 2441 9329 C 2425 9337 2419 9331 2402 9336 C 2393 9338 2378 9347 2368 9351 L 2304 9382 C 2295 9385 2283 9389 2273 9396 L 2259 9404 C 2223 9414 2218 9425 2194 9434 L 2175 9440 C 2149 9451 2123 9451 2104 9469 C 2092 9481 2092 9480 2077 9488 C 2058 9497 2064 9494 2039 9501 C 2019 9507 2004 9530 1987 9542 C 1960 9561 1963 9546 1929 9578 L 1873 9616 C 1870 9618 1868 9619 1864 9622 L 1821 9659 C 1800 9678 1796 9666 1767 9699 C 1754 9713 1742 9718 1726 9728 C 1726 9729 1714 9739 1713 9740 C 1703 9750 1699 9757 1689 9765 C 1661 9786 1643 9813 1616 9836 L 1565 9880 C 1552 9892 1557 9895 1546 9905 C 1538 9911 1541 9906 1531 9915 L 1498 9952 C 1465 9984 1444 10022 1412 10055 C 1393 10075 1384 10106 1364 10126 L 1297 10224 C 1285 10243 1272 10261 1259 10280 C 1241 10303 1221 10366 1212 10376 C 1188 10403 1170 10436 1164 10470 L 1154 10494 C 1153 10495 1153 10497 1152 10498 C 1102 10583 1119 10585 1110 10605 C 1106 10614 1068 10636 1053 10735 L 1023 10823 C 1018 10843 1021 10825 1016 10842 C 1010 10859 1014 10867 1011 10882 C 1009 10892 1000 10904 998 10919 C 996 10933 999 10949 996 10962 C 992 10976 985 10973 983 10998 L 961 11116 C 957 11134 964 11181 943 11187 Z" style="fill: rgb(0, 0, 0);"/>
    <path class="fil0" d="M 3942 11951 C 3951 11935 3952 11919 3968 11911 C 3970 11882 3991 11831 4008 11806 L 4009 11803 C 4013 11797 4007 11798 4018 11793 C 4018 11769 4021 11770 4026 11752 C 4027 11745 4027 11741 4029 11731 C 4030 11724 4029 11728 4031 11722 C 4038 11704 4036 11691 4039 11670 C 4041 11662 4044 11661 4045 11653 L 4052 11535 C 4052 11435 4039 11343 4012 11251 L 3976 11153 C 3973 11146 3971 11138 3971 11132 C 3953 11131 3953 11113 3946 11099 L 3939 11084 C 3934 11074 3930 11071 3924 11063 C 3912 11045 3901 11016 3889 11001 L 3844 10944 L 3842 10942 C 3842 10941 3837 10938 3837 10937 C 3829 10928 3830 10922 3823 10914 C 3803 10893 3727 10815 3712 10806 L 3672 10776 L 3671 10774 C 3670 10774 3670 10773 3669 10772 L 3656 10759 L 3654 10758 L 3515 10674 C 3508 10670 3502 10671 3494 10668 C 3481 10664 3486 10661 3469 10655 L 3430 10637 C 3414 10631 3402 10625 3385 10622 L 3371 10619 L 3340 10608 C 3331 10603 3317 10604 3306 10603 C 3292 10600 3296 10599 3291 10597 C 3272 10592 3272 10603 3262 10586 L 3235 10586 C 3225 10572 3056 10571 3037 10573 C 3019 10575 2985 10575 2966 10582 C 2950 10589 2925 10587 2909 10590 C 2900 10592 2885 10593 2878 10596 C 2854 10606 2841 10602 2817 10610 L 2643 10683 C 2627 10693 2607 10698 2592 10709 C 2583 10716 2580 10723 2570 10729 L 2538 10750 C 2520 10764 2514 10762 2501 10771 C 2482 10785 2466 10803 2449 10820 C 2448 10820 2448 10821 2447 10821 L 2445 10823 L 2438 10827 C 2438 10828 2437 10828 2436 10829 L 2397 10867 C 2396 10867 2396 10868 2395 10868 C 2394 10869 2392 10870 2391 10871 L 2288 10994 L 2254 11055 C 2253 11056 2252 11056 2252 11057 L 2241 11071 C 2238 11077 2236 11079 2234 11084 C 2233 11085 2233 11086 2233 11087 L 2232 11089 C 2229 11096 2231 11092 2228 11096 L 2152 11297 C 2148 11312 2154 11308 2144 11328 L 2127 11454 C 2127 11460 2128 11465 2127 11471 L 2124 11559 L 2138 11709 C 2139 11714 2140 11720 2141 11727 C 2142 11732 2148 11745 2148 11759 C 2166 11762 2157 11770 2165 11804 L 2194 11879 C 2195 11880 2195 11881 2195 11881 C 2208 11912 2206 11922 2229 11963 L 2251 12005 C 2254 12009 2256 12014 2257 12016 L 2260 12020 C 2261 12023 2263 12026 2263 12027 L 2275 12046 L 2276 12047 L 2346 12140 C 2350 12145 2348 12144 2352 12148 C 2352 12149 2354 12150 2355 12151 L 2430 12228 L 2432 12230 L 2434 12232 L 2447 12246 C 2487 12277 2475 12259 2514 12294 C 2520 12300 2523 12302 2531 12307 C 2540 12315 2542 12315 2550 12322 C 2550 12323 2551 12324 2552 12324 L 2693 12404 C 2699 12407 2699 12405 2707 12408 L 2714 12411 C 2737 12421 2794 12427 2810 12434 L 2837 12445 C 2867 12459 2877 12445 2900 12457 C 2934 12475 2976 12469 3015 12472 C 3045 12474 3017 12477 3042 12479 L 3171 12478 C 3188 12478 3182 12476 3195 12473 C 3206 12470 3216 12472 3228 12471 C 3246 12469 3261 12460 3275 12455 L 3378 12430 C 3396 12421 3376 12425 3404 12421 C 3424 12418 3402 12415 3430 12414 C 3434 12391 3445 12404 3460 12394 L 3476 12378 C 3494 12378 3486 12378 3498 12373 L 3526 12361 L 3529 12360 L 3539 12354 L 3543 12351 L 3548 12349 C 3578 12334 3563 12339 3585 12325 C 3612 12308 3624 12312 3652 12290 L 3675 12270 C 3683 12263 3678 12266 3686 12263 C 3707 12254 3704 12248 3721 12237 C 3751 12219 3745 12205 3766 12191 L 3796 12163 C 3807 12151 3812 12155 3826 12133 C 3834 12120 3846 12112 3853 12099 L 3869 12077 C 3869 12077 3870 12076 3870 12075 C 3895 12043 3918 12004 3935 11967 L 3941 11954 L 3942 11951 Z M 3529 11745 C 3533 11736 3534 11728 3542 11724 C 3543 11709 3554 11683 3562 11670 L 3563 11669 C 3565 11666 3562 11666 3568 11663 C 3568 11651 3569 11651 3572 11642 C 3572 11639 3572 11636 3573 11632 C 3574 11628 3573 11630 3574 11627 C 3578 11618 3577 11611 3579 11600 C 3579 11596 3581 11595 3582 11591 L 3585 11530 C 3585 11479 3579 11432 3565 11384 L 3546 11333 C 3544 11330 3544 11325 3543 11322 C 3534 11322 3534 11312 3530 11305 L 3527 11298 C 3525 11293 3522 11291 3519 11287 C 3513 11278 3507 11262 3501 11255 L 3478 11225 L 3477 11225 C 3477 11224 3474 11222 3474 11222 C 3470 11217 3471 11214 3467 11210 C 3456 11199 3418 11159 3410 11154 L 3389 11139 L 3388 11138 L 3388 11137 L 3381 11130 L 3380 11129 L 3308 11086 C 3305 11084 3301 11085 3297 11083 C 3290 11081 3293 11080 3285 11077 L 3264 11067 C 3256 11064 3250 11061 3241 11060 L 3234 11058 L 3218 11052 C 3213 11050 3206 11050 3200 11050 C 3193 11048 3195 11048 3193 11047 C 3183 11044 3183 11050 3178 11041 L 3164 11041 C 3159 11034 3071 11033 3061 11034 C 3052 11035 3035 11035 3025 11039 C 3017 11042 3004 11041 2996 11043 C 2991 11044 2983 11044 2979 11046 C 2967 11051 2961 11049 2948 11053 L 2859 11091 C 2850 11096 2840 11099 2832 11104 C 2828 11108 2826 11111 2821 11115 L 2804 11125 C 2795 11133 2792 11132 2785 11136 C 2775 11143 2767 11153 2758 11161 L 2758 11162 L 2757 11163 L 2753 11165 C 2753 11166 2752 11166 2752 11166 L 2732 11186 L 2731 11186 C 2730 11187 2729 11188 2728 11188 L 2675 11251 L 2658 11283 C 2657 11283 2657 11283 2657 11284 L 2651 11291 C 2649 11294 2649 11295 2647 11298 L 2647 11299 L 2646 11301 C 2645 11304 2646 11302 2645 11304 L 2605 11408 C 2603 11415 2606 11413 2601 11424 L 2592 11488 C 2592 11491 2593 11494 2592 11497 L 2591 11543 L 2598 11620 C 2599 11623 2599 11626 2600 11629 C 2600 11632 2603 11639 2603 11646 C 2612 11647 2608 11651 2612 11669 L 2627 11708 C 2627 11708 2627 11709 2628 11709 C 2634 11725 2633 11730 2645 11751 L 2657 11773 C 2658 11775 2659 11777 2660 11778 L 2661 11781 C 2662 11782 2662 11784 2663 11784 L 2669 11794 L 2669 11795 L 2705 11843 L 2708 11846 L 2710 11848 L 2749 11888 L 2750 11889 L 2751 11890 L 2757 11897 C 2778 11913 2772 11904 2792 11922 C 2795 11925 2797 11926 2801 11929 C 2806 11932 2807 11932 2811 11936 L 2811 11937 L 2885 11979 C 2887 11980 2888 11979 2891 11981 L 2895 11982 C 2907 11987 2936 11990 2945 11994 L 2959 11999 C 2974 12007 2979 11999 2991 12006 C 3009 12015 3030 12012 3051 12013 C 3066 12015 3052 12016 3064 12017 L 3131 12017 C 3140 12016 3136 12016 3143 12014 C 3149 12013 3154 12014 3160 12013 C 3169 12012 3177 12008 3184 12005 L 3238 11992 C 3247 11987 3237 11989 3251 11987 C 3261 11986 3250 11984 3264 11984 C 3266 11972 3272 11979 3280 11973 L 3288 11965 C 3297 11965 3293 11965 3299 11963 L 3314 11956 L 3315 11956 L 3321 11952 L 3323 11951 L 3325 11950 C 3341 11943 3333 11945 3344 11938 C 3358 11929 3364 11931 3379 11920 L 3391 11909 C 3395 11906 3392 11908 3396 11906 C 3407 11901 3405 11898 3414 11892 C 3430 11883 3427 11876 3438 11868 L 3453 11854 C 3459 11848 3461 11850 3468 11839 C 3472 11832 3479 11828 3482 11821 L 3491 11810 L 3491 11809 C 3504 11792 3516 11772 3525 11753 L 3528 11746 L 3529 11745 Z" style="fill: rgb(0, 0, 0);"/>
    <path class="fil0" d="M 10705 11980 C 10714 11963 10715 11948 10731 11940 C 10733 11910 10754 11860 10770 11834 L 10772 11832 C 10776 11826 10770 11827 10781 11821 C 10781 11798 10784 11798 10789 11780 C 10790 11774 10790 11769 10791 11760 C 10793 11753 10792 11757 10794 11751 C 10800 11733 10798 11719 10802 11699 C 10804 11690 10807 11689 10808 11681 L 10815 11564 C 10815 11464 10802 11372 10775 11280 L 10738 11181 C 10736 11175 10734 11166 10734 11160 C 10716 11160 10716 11141 10708 11127 L 10702 11113 C 10697 11102 10693 11099 10687 11091 C 10675 11073 10664 11044 10651 11029 L 10607 10972 L 10605 10970 C 10604 10970 10600 10966 10600 10965 C 10592 10957 10593 10950 10585 10942 C 10565 10921 10490 10843 10475 10834 L 10435 10805 L 10433 10803 C 10433 10802 10432 10801 10432 10801 L 10419 10787 L 10417 10786 L 10277 10702 C 10271 10698 10264 10699 10257 10697 C 10243 10692 10249 10689 10232 10684 L 10193 10666 C 10176 10660 10165 10654 10148 10651 L 10133 10647 L 10102 10636 C 10094 10631 10080 10633 10069 10631 C 10055 10629 10059 10627 10054 10626 C 10035 10621 10035 10632 10025 10615 L 9998 10615 C 9988 10601 9818 10599 9799 10601 C 9781 10604 9747 10603 9729 10611 C 9712 10617 9688 10615 9672 10619 C 9663 10621 9648 10621 9640 10624 C 9617 10634 9604 10630 9580 10638 L 9406 10711 C 9389 10721 9370 10726 9355 10738 C 9346 10744 9343 10751 9333 10757 L 9301 10778 C 9282 10792 9277 10791 9264 10800 C 9244 10813 9229 10831 9212 10848 L 9210 10850 L 9208 10852 L 9201 10856 C 9201 10856 9200 10857 9199 10857 L 9160 10895 C 9159 10896 9158 10896 9158 10897 C 9157 10897 9154 10899 9154 10899 L 9051 11022 L 9016 11083 C 9016 11084 9015 11085 9015 11085 L 9004 11100 C 9000 11106 8999 11108 8996 11113 C 8996 11114 8996 11115 8995 11115 L 8994 11118 C 8991 11124 8994 11120 8991 11125 L 8915 11326 C 8911 11340 8917 11337 8907 11356 L 8890 11482 L 8890 11500 L 8887 11587 L 8901 11738 C 8902 11742 8902 11748 8904 11756 C 8905 11761 8910 11773 8910 11787 C 8929 11790 8920 11798 8928 11833 L 8957 11907 C 8957 11908 8958 11909 8958 11910 C 8971 11940 8969 11950 8992 11991 L 9014 12034 C 9017 12038 9019 12042 9020 12044 L 9023 12049 C 9024 12051 9025 12055 9026 12056 L 9037 12074 L 9039 12076 L 9109 12169 C 9113 12174 9111 12172 9114 12176 C 9115 12177 9117 12179 9118 12179 L 9193 12257 L 9195 12258 L 9196 12260 L 9209 12274 C 9250 12306 9238 12287 9277 12322 C 9282 12328 9286 12330 9293 12336 C 9303 12343 9305 12343 9313 12351 L 9314 12352 L 9456 12433 C 9461 12435 9462 12434 9469 12436 L 9477 12440 C 9500 12449 9556 12455 9573 12462 L 9600 12473 C 9630 12488 9640 12473 9663 12485 C 9697 12503 9739 12497 9778 12500 C 9808 12502 9780 12506 9805 12507 L 9934 12507 C 9951 12506 9945 12504 9958 12501 C 9969 12499 9979 12501 9991 12499 C 10008 12497 10024 12489 10038 12484 L 10141 12458 C 10159 12449 10139 12453 10167 12450 C 10187 12447 10165 12444 10193 12443 C 10196 12419 10208 12433 10223 12422 L 10239 12406 C 10257 12406 10248 12406 10261 12402 L 10289 12390 L 10292 12389 C 10297 12386 10297 12385 10302 12382 L 10306 12379 L 10311 12377 C 10341 12363 10326 12368 10348 12354 C 10374 12336 10386 12340 10415 12319 L 10438 12298 C 10445 12292 10441 12295 10449 12292 C 10470 12283 10466 12276 10484 12266 C 10513 12248 10508 12233 10529 12219 L 10558 12192 C 10570 12179 10575 12184 10589 12161 C 10596 12149 10609 12141 10616 12128 L 10632 12106 C 10632 12105 10633 12104 10633 12104 C 10658 12072 10681 12033 10697 11996 L 10704 11982 L 10705 11980 Z M 10291 11773 C 10296 11765 10296 11757 10305 11753 C 10306 11738 10317 11712 10325 11698 L 10326 11697 C 10328 11694 10325 11695 10330 11692 C 10330 11680 10332 11680 10334 11670 C 10335 11667 10335 11665 10336 11660 C 10336 11656 10336 11658 10337 11655 C 10340 11646 10339 11639 10341 11628 C 10342 11624 10344 11624 10344 11620 L 10348 11559 C 10348 11507 10341 11460 10327 11412 L 10309 11362 C 10307 11358 10306 11354 10306 11351 C 10297 11350 10297 11341 10293 11334 L 10290 11326 C 10287 11321 10285 11319 10282 11315 C 10276 11306 10270 11291 10264 11283 L 10241 11254 L 10240 11253 C 10239 11253 10237 11251 10237 11250 C 10233 11246 10234 11243 10230 11238 C 10219 11228 10180 11187 10172 11183 L 10152 11168 L 10151 11167 C 10151 11166 10151 11166 10150 11165 L 10144 11158 L 10143 11158 L 10071 11115 C 10068 11113 10064 11113 10060 11112 C 10053 11109 10056 11108 10047 11105 L 10027 11096 C 10019 11093 10013 11090 10004 11088 L 9997 11086 L 9981 11081 C 9976 11078 9969 11079 9963 11078 C 9956 11077 9958 11076 9955 11075 C 9946 11073 9946 11078 9941 11069 L 9927 11069 C 9921 11062 9834 11061 9824 11063 C 9815 11064 9797 11064 9788 11067 C 9779 11071 9767 11070 9758 11072 C 9754 11073 9746 11073 9742 11074 C 9730 11080 9723 11078 9711 11082 L 9621 11119 C 9613 11124 9603 11127 9595 11133 C 9591 11136 9589 11140 9584 11143 L 9567 11154 C 9558 11161 9555 11160 9548 11165 C 9538 11172 9530 11181 9521 11190 L 9520 11191 L 9519 11192 L 9516 11194 L 9515 11194 L 9494 11214 C 9494 11214 9494 11215 9493 11215 C 9493 11215 9492 11216 9491 11216 L 9438 11280 L 9420 11311 L 9420 11312 L 9414 11320 C 9412 11323 9411 11324 9410 11326 L 9410 11328 L 9409 11329 C 9408 11332 9409 11330 9407 11333 L 9368 11436 C 9366 11444 9369 11442 9364 11452 L 9355 11517 L 9355 11526 L 9354 11571 L 9361 11649 C 9362 11651 9362 11654 9362 11658 C 9363 11661 9366 11667 9366 11674 C 9375 11676 9371 11680 9375 11698 L 9390 11736 L 9390 11737 C 9397 11753 9396 11758 9408 11779 L 9419 11801 C 9421 11803 9422 11805 9422 11807 L 9424 11809 C 9424 11810 9425 11812 9425 11813 L 9431 11822 L 9432 11823 L 9468 11871 C 9470 11874 9469 11873 9471 11875 C 9471 11875 9472 11876 9473 11876 L 9512 11916 L 9512 11917 L 9513 11918 L 9520 11925 C 9541 11942 9535 11932 9555 11950 C 9558 11953 9559 11954 9563 11957 C 9568 11961 9569 11961 9573 11965 C 9574 11965 9574 11965 9574 11966 L 9647 12007 C 9650 12008 9650 12008 9654 12009 L 9658 12011 C 9670 12016 9699 12018 9708 12022 L 9721 12028 C 9737 12035 9742 12028 9754 12034 C 9771 12043 9793 12040 9813 12042 C 9829 12043 9814 12045 9827 12045 L 9894 12045 C 9903 12045 9899 12044 9906 12042 C 9912 12041 9917 12042 9923 12041 C 9932 12040 9940 12036 9947 12033 L 10000 12020 C 10010 12015 9999 12018 10014 12016 C 10024 12014 10013 12013 10027 12012 C 10029 12000 10035 12007 10043 12002 L 10051 11993 C 10060 11993 10056 11993 10062 11991 L 10077 11985 L 10078 11984 C 10081 11983 10081 11982 10083 11981 L 10086 11980 L 10088 11978 C 10103 11971 10096 11974 10107 11966 C 10121 11957 10127 11959 10142 11948 L 10154 11938 C 10157 11934 10155 11936 10159 11934 C 10170 11930 10168 11926 10177 11921 C 10192 11912 10190 11904 10200 11897 L 10216 11883 C 10222 11876 10224 11879 10231 11867 C 10235 11861 10242 11856 10245 11850 L 10253 11838 C 10254 11838 10254 11838 10254 11837 C 10267 11821 10279 11801 10287 11782 L 10291 11775 L 10291 11773 Z" style="fill: rgb(0, 0, 0);"/>
    <path class="fil0" d="M 7328 6119 C 7336 6102 7338 6087 7354 6079 C 7355 6049 7377 5999 7393 5973 L 7394 5971 C 7398 5965 7393 5966 7404 5960 C 7404 5937 7407 5937 7411 5919 C 7413 5913 7412 5908 7414 5899 C 7415 5891 7414 5895 7417 5890 C 7423 5872 7421 5858 7425 5838 C 7426 5829 7429 5828 7431 5820 L 7437 5703 C 7437 5603 7425 5511 7397 5419 L 7361 5320 C 7358 5313 7357 5305 7356 5299 C 7338 5298 7338 5280 7331 5266 L 7324 5252 C 7320 5241 7316 5238 7310 5230 C 7298 5212 7287 5183 7274 5168 L 7230 5111 L 7228 5109 C 7227 5109 7223 5105 7222 5104 C 7214 5096 7216 5089 7208 5081 C 7188 5060 7113 4982 7097 4973 L 7058 4944 L 7056 4942 C 7055 4941 7055 4940 7054 4940 L 7041 4926 L 7040 4925 L 6900 4841 C 6894 4837 6887 4838 6879 4836 C 6866 4831 6872 4828 6855 4823 L 6815 4804 C 6799 4799 6788 4793 6770 4789 L 6756 4786 L 6725 4775 C 6716 4770 6702 4772 6691 4770 C 6678 4768 6682 4766 6676 4765 C 6657 4760 6657 4771 6648 4754 L 6621 4754 C 6610 4740 6441 4738 6422 4740 C 6404 4743 6370 4742 6351 4750 C 6335 4756 6310 4754 6294 4758 C 6286 4760 6270 4760 6263 4763 C 6239 4773 6226 4769 6202 4777 L 6028 4850 C 6012 4860 5992 4865 5977 4876 C 5969 4883 5966 4890 5956 4896 L 5923 4917 C 5905 4931 5899 4930 5886 4938 C 5867 4952 5851 4970 5834 4987 C 5834 4987 5833 4988 5833 4989 L 5831 4991 L 5824 4995 C 5823 4995 5822 4996 5822 4996 L 5782 5034 C 5782 5034 5781 5035 5780 5035 C 5779 5036 5777 5038 5776 5038 L 5673 5161 L 5639 5222 L 5637 5224 L 5626 5239 C 5623 5245 5621 5247 5619 5252 C 5619 5253 5618 5253 5618 5254 L 5617 5257 C 5614 5263 5616 5259 5614 5264 L 5538 5465 C 5533 5479 5539 5476 5530 5495 L 5513 5621 C 5512 5627 5513 5633 5512 5639 L 5509 5726 L 5523 5877 C 5525 5881 5525 5887 5526 5894 C 5528 5900 5533 5912 5533 5926 C 5551 5929 5542 5937 5551 5972 L 5580 6046 C 5580 6047 5580 6048 5581 6049 C 5594 6079 5591 6089 5614 6130 L 5637 6172 C 5639 6177 5641 6181 5643 6183 L 5645 6188 C 5646 6190 5648 6194 5649 6194 L 5660 6213 L 5661 6215 L 5731 6308 C 5735 6313 5733 6311 5737 6315 L 5740 6318 L 5815 6396 L 5817 6397 L 5819 6399 L 5832 6413 C 5873 6445 5861 6426 5899 6461 C 5905 6467 5908 6469 5916 6475 C 5926 6482 5928 6482 5935 6490 C 5936 6490 5936 6491 5937 6491 L 6079 6572 C 6084 6574 6085 6573 6092 6575 L 6099 6579 C 6122 6588 6179 6594 6196 6601 L 6223 6612 C 6252 6627 6262 6612 6285 6624 C 6319 6642 6361 6636 6401 6639 C 6430 6641 6403 6645 6427 6646 L 6557 6646 C 6574 6645 6567 6643 6580 6640 C 6592 6637 6602 6640 6613 6638 C 6631 6636 6646 6628 6660 6622 L 6764 6597 C 6781 6588 6762 6592 6790 6588 C 6809 6586 6787 6582 6815 6582 C 6819 6558 6830 6572 6846 6561 L 6861 6545 C 6879 6545 6871 6545 6883 6541 L 6912 6529 L 6914 6527 L 6924 6521 L 6929 6518 L 6933 6516 C 6963 6502 6949 6507 6971 6493 C 6997 6475 7009 6479 7037 6458 L 7061 6437 C 7068 6431 7064 6434 7072 6430 C 7092 6422 7089 6415 7106 6405 C 7136 6387 7130 6372 7151 6358 L 7181 6331 C 7193 6318 7198 6323 7211 6300 C 7219 6288 7232 6279 7238 6267 L 7254 6245 C 7255 6244 7255 6243 7256 6243 C 7280 6210 7304 6172 7320 6135 L 7327 6121 L 7328 6119 Z M 6914 5912 C 6918 5904 6919 5896 6927 5892 C 6928 5877 6939 5851 6948 5837 L 6948 5836 C 6950 5833 6948 5834 6953 5831 C 6953 5818 6955 5819 6957 5809 C 6958 5806 6958 5804 6958 5799 C 6959 5795 6959 5797 6960 5794 C 6963 5785 6962 5778 6964 5767 C 6965 5763 6966 5763 6967 5758 L 6971 5698 C 6971 5646 6964 5599 6950 5551 L 6931 5500 C 6930 5497 6929 5493 6929 5490 C 6919 5489 6919 5480 6916 5473 L 6912 5465 C 6910 5460 6908 5458 6905 5454 C 6898 5445 6893 5430 6886 5422 L 6863 5393 L 6862 5392 L 6859 5389 C 6855 5385 6856 5382 6852 5377 C 6842 5367 6803 5326 6795 5322 L 6775 5306 L 6774 5305 C 6774 5305 6773 5305 6773 5304 L 6766 5297 L 6765 5297 L 6693 5254 C 6690 5251 6687 5252 6683 5251 C 6676 5248 6679 5247 6670 5244 L 6650 5235 C 6641 5232 6635 5228 6626 5227 L 6619 5225 L 6603 5220 C 6599 5217 6591 5218 6586 5217 C 6579 5216 6581 5215 6578 5214 C 6568 5212 6568 5217 6563 5208 L 6549 5208 C 6544 5201 6457 5200 6447 5202 C 6438 5203 6420 5203 6410 5206 C 6402 5210 6389 5209 6381 5211 C 6377 5212 6369 5212 6365 5213 C 6353 5218 6346 5217 6334 5221 L 6244 5258 C 6235 5263 6225 5266 6218 5272 C 6213 5275 6211 5279 6206 5282 L 6190 5293 C 6180 5300 6177 5299 6171 5304 C 6161 5311 6152 5320 6144 5329 C 6144 5329 6143 5329 6143 5330 L 6142 5331 L 6138 5333 L 6137 5333 L 6117 5353 L 6116 5354 L 6114 5355 L 6061 5418 L 6043 5450 L 6042 5451 L 6036 5459 C 6035 5462 6034 5463 6033 5465 C 6033 5466 6032 5466 6032 5467 L 6032 5468 C 6030 5471 6031 5469 6030 5472 L 5991 5575 C 5989 5582 5992 5581 5987 5591 L 5978 5656 L 5978 5665 L 5976 5710 L 5984 5788 C 5984 5790 5984 5793 5985 5797 C 5986 5799 5988 5806 5988 5813 C 5998 5815 5993 5819 5997 5836 L 6012 5875 C 6013 5875 6013 5876 6013 5876 C 6020 5892 6018 5897 6030 5918 L 6042 5940 L 6045 5946 L 6046 5948 C 6047 5949 6048 5951 6048 5951 L 6054 5961 L 6055 5962 L 6091 6010 C 6093 6012 6092 6012 6094 6014 L 6095 6015 L 6134 6055 L 6135 6056 L 6136 6057 L 6143 6064 C 6164 6080 6157 6071 6177 6089 C 6180 6092 6182 6093 6186 6096 C 6191 6100 6192 6100 6196 6104 L 6197 6105 L 6270 6146 C 6272 6147 6273 6147 6277 6148 L 6281 6150 C 6292 6154 6322 6157 6330 6161 L 6344 6167 C 6359 6174 6365 6167 6376 6173 C 6394 6182 6416 6179 6436 6181 C 6451 6182 6437 6184 6450 6184 L 6516 6184 C 6525 6184 6522 6183 6528 6181 C 6534 6180 6540 6181 6545 6180 C 6555 6179 6562 6175 6570 6172 L 6623 6159 C 6632 6154 6622 6157 6637 6155 C 6647 6153 6635 6152 6650 6151 C 6652 6139 6657 6146 6665 6140 L 6673 6132 C 6683 6132 6678 6132 6685 6130 L 6699 6124 L 6701 6123 C 6703 6122 6703 6121 6706 6120 L 6708 6118 L 6711 6117 C 6726 6110 6718 6113 6730 6105 C 6743 6096 6750 6098 6764 6087 L 6776 6077 C 6780 6073 6778 6075 6782 6073 C 6792 6069 6791 6065 6800 6060 C 6815 6051 6812 6043 6823 6036 L 6838 6022 C 6844 6015 6847 6018 6854 6006 C 6858 6000 6864 5995 6868 5989 L 6876 5977 C 6876 5977 6877 5977 6877 5976 C 6889 5960 6902 5940 6910 5921 L 6913 5914 L 6914 5912 Z" style="fill: rgb(0, 0, 0);"/>
  </g>
</svg>